<svg width="32" height="32" viewBox="0 0 32 32" fill="none" xmlns="http://www.w3.org/2000/svg">
<path fill-rule="evenodd" clip-rule="evenodd" d="M13.672 6.404L3.48 10.772C3.33751 10.833 3.21607 10.9346 3.13073 11.064C3.04539 11.1934 2.9999 11.345 2.9999 11.5C2.9999 11.655 3.04539 11.8066 3.13073 11.936C3.21607 12.0654 3.33751 12.167 3.48 12.228L13.672 16.596C14.2945 16.8627 14.9647 17.0001 15.642 17H16.358C17.0352 17.0001 17.7055 16.8627 18.328 16.596L28.52 12.228C28.6625 12.167 28.7839 12.0654 28.8693 11.936C28.9546 11.8066 29.0001 11.655 29.0001 11.5C29.0001 11.345 28.9546 11.1934 28.8693 11.064C28.7839 10.9346 28.6625 10.833 28.52 10.772L18.328 6.404C17.7055 6.13731 17.0352 5.99986 16.358 6H15.642C14.9647 5.99986 14.2945 6.13731 13.672 6.404ZM3 15.284L6 16.572V23.028C6.00003 23.771 6.20699 24.4993 6.59768 25.1313C6.98838 25.7632 7.54737 26.2739 8.212 26.606L9.824 27.412C11.7452 28.3724 13.8615 28.8778 16.0093 28.8893C18.1571 28.9007 20.2787 28.4178 22.21 27.478L24.028 26.594C24.7025 26.2658 25.2711 25.7547 25.6689 25.1188C26.0668 24.483 26.2778 23.7481 26.278 22.998V16.452L29.702 14.984C30.3833 14.6913 30.9638 14.2052 31.3717 13.586C31.7796 12.9667 31.997 12.2415 31.997 11.5C31.997 10.7585 31.7796 10.0333 31.3717 9.41402C30.9638 8.79478 30.3833 8.30873 29.702 8.016L19.51 3.646C18.5139 3.21943 17.4416 2.99965 16.358 3H15.642C14.5584 2.99965 13.4861 3.21943 12.49 3.646L2.3 8.016C1.6184 8.30883 1.03742 8.79476 0.628711 9.41387C0.220005 10.033 0.00144877 10.7582 0 11.5L0 20.5C0 20.8978 0.158035 21.2794 0.43934 21.5607C0.720644 21.842 1.10218 22 1.5 22C1.89782 22 2.27936 21.842 2.56066 21.5607C2.84196 21.2794 3 20.8978 3 20.5V15.284ZM9 23.028V17.858L12.49 19.354C13.4861 19.7806 14.5584 20.0004 15.642 20H16.358C17.4416 20.0004 18.5139 19.7806 19.51 19.354L23.278 17.738V22.998C23.278 23.1858 23.2251 23.3699 23.1254 23.5291C23.0256 23.6882 22.8831 23.8161 22.714 23.898L20.896 24.782C19.3786 25.5198 17.7119 25.8987 16.0247 25.8893C14.3375 25.88 12.6751 25.4826 11.166 24.728L9.552 23.922C9.38611 23.8389 9.24661 23.7112 9.14913 23.5533C9.05164 23.3955 9.00001 23.2136 9 23.028Z" fill="#302F2B"/>
</svg>
