<svg width="50" height="50" viewBox="0 0 50 50" fill="none" xmlns="http://www.w3.org/2000/svg">
<path fill-rule="evenodd" clip-rule="evenodd" d="M32.9061 9.28125C33.345 9.7207 33.5916 10.3164 33.5916 10.9375C33.5916 11.5586 33.345 12.1543 32.9061 12.5937L20.4999 25L32.9061 37.4062C33.1364 37.6208 33.3211 37.8796 33.4492 38.1671C33.5773 38.4546 33.6462 38.7649 33.6517 39.0796C33.6573 39.3943 33.5994 39.7069 33.4815 39.9987C33.3636 40.2906 33.1882 40.5557 32.9656 40.7782C32.7431 41.0008 32.478 41.1763 32.1861 41.2941C31.8943 41.412 31.5817 41.4699 31.267 41.4643C30.9523 41.4588 30.642 41.3899 30.3545 41.2618C30.067 41.1337 29.8082 40.949 29.5936 40.7187L15.5311 26.6562C15.0922 26.2168 14.8457 25.6211 14.8457 25C14.8457 24.3789 15.0922 23.7832 15.5311 23.3437L29.5936 9.28125C30.0331 8.84234 30.6288 8.59581 31.2499 8.59581C31.871 8.59581 32.4667 8.84234 32.9061 9.28125Z" fill="#302F2B"/>
</svg>
