<svg width="123" height="202" viewBox="0 0 123 202" fill="none" xmlns="http://www.w3.org/2000/svg">
<path d="M65.0419 89.6605L64.7236 88.7126L65.0419 89.6605ZM7.41936 200.943C7.85148 201.287 8.4806 201.215 8.82453 200.783L14.4292 193.741C14.7732 193.309 14.7017 192.68 14.2695 192.336C13.8374 191.992 13.2083 192.064 12.8644 192.496L7.88243 198.755L1.62302 193.773C1.1909 193.429 0.561787 193.501 0.217854 193.933C-0.126079 194.365 -0.0545888 194.994 0.377536 195.338L7.41936 200.943ZM121.042 0.160414C120.055 0.322421 120.055 0.32218 120.055 0.322195C120.055 0.32254 120.055 0.322808 120.055 0.323494C120.056 0.324867 120.056 0.327254 120.057 0.330646C120.058 0.337431 120.059 0.348243 120.062 0.363027C120.066 0.392596 120.073 0.438055 120.082 0.498979C120.1 0.62083 120.126 0.804528 120.158 1.04667C120.22 1.53099 120.304 2.24898 120.388 3.17348C120.555 5.02273 120.722 7.69669 120.714 10.9784C120.698 17.5449 119.986 26.5267 117.206 36.1966C111.656 55.4988 97.861 77.5843 64.7236 88.7126L65.0419 89.6605L65.3603 90.6085C99.2229 79.2367 113.428 56.5722 119.128 36.7493C121.973 26.8567 122.698 17.6822 122.714 10.9831C122.722 7.63197 122.552 4.89577 122.38 2.99306C122.294 2.04158 122.207 1.29814 122.141 0.790025C122.108 0.535956 122.081 0.340684 122.061 0.207622C122.051 0.141089 122.043 0.0901046 122.038 0.0550941C122.035 0.0375896 122.033 0.0240775 122.032 0.0146115C122.031 0.009879 122.03 0.00615756 122.03 0.00345465C122.029 0.00210301 122.029 0.000840604 122.029 0.000164264C122.029 -0.000841591 122.029 -0.00159302 121.042 0.160414ZM65.0419 89.6605L64.7236 88.7126C30.7641 100.117 16.3601 128.131 10.4439 153.118C7.48485 165.615 6.63652 177.395 6.52654 186.046C6.47152 190.374 6.6012 193.923 6.74496 196.393C6.81686 197.629 6.89228 198.595 6.94996 199.254C6.97881 199.583 7.00322 199.836 7.02052 200.008C7.02918 200.093 7.03606 200.159 7.04083 200.203C7.04322 200.226 7.04508 200.243 7.04637 200.254C7.04702 200.26 7.04753 200.265 7.04788 200.268C7.04805 200.269 7.04821 200.271 7.0483 200.272C7.04842 200.273 7.04851 200.273 8.04211 200.16C9.03571 200.048 9.03572 200.048 9.03569 200.047C9.03563 200.047 9.03555 200.046 9.03543 200.045C9.03519 200.043 9.0348 200.039 9.03427 200.035C9.0332 200.025 9.03156 200.01 9.0294 199.99C9.02508 199.949 9.01863 199.888 9.01041 199.807C8.99397 199.644 8.9704 199.4 8.94235 199.079C8.88626 198.439 8.81227 197.492 8.74158 196.277C8.60018 193.847 8.47203 190.346 8.52638 186.072C8.6351 177.52 9.47423 165.893 12.3901 153.578C18.2239 128.94 32.3197 101.704 65.3603 90.6085L65.0419 89.6605Z" fill="white"/>
</svg>
