<svg width="50" height="50" viewBox="0 0 50 50" fill="none" xmlns="http://www.w3.org/2000/svg">
<path fill-rule="evenodd" clip-rule="evenodd" d="M17.0936 40.7188C16.6547 40.2793 16.4082 39.6836 16.4082 39.0625C16.4082 38.4414 16.6547 37.8457 17.0936 37.4063L29.4999 25L17.0936 12.5938C16.6796 12.1495 16.4543 11.5618 16.465 10.9546C16.4757 10.3474 16.7217 9.7681 17.1511 9.33868C17.5805 8.90927 18.1598 8.66329 18.767 8.65258C19.3742 8.64187 19.9618 8.86725 20.4061 9.28125L34.4686 23.3438C34.9075 23.7832 35.1541 24.3789 35.1541 25C35.1541 25.6211 34.9075 26.2168 34.4686 26.6563L20.4061 40.7188C19.9667 41.1577 19.371 41.4042 18.7499 41.4042C18.1288 41.4042 17.5331 41.1577 17.0936 40.7188Z" fill="#302F2B"/>
</svg>
