<svg width="50" height="50" viewBox="0 0 50 50" fill="none" xmlns="http://www.w3.org/2000/svg">
<path fill-rule="evenodd" clip-rule="evenodd" d="M9.28114 17.0937C9.7206 16.6548 10.3163 16.4083 10.9374 16.4083C11.5585 16.4083 12.1542 16.6548 12.5936 17.0937L24.9999 29.5L37.4061 17.0937C37.6207 16.8635 37.8795 16.6788 38.167 16.5507C38.4545 16.4226 38.7648 16.3537 39.0795 16.3482C39.3942 16.3426 39.7068 16.4005 39.9986 16.5184C40.2905 16.6362 40.5556 16.8117 40.7781 17.0343C41.0007 17.2568 41.1761 17.5219 41.294 17.8138C41.4119 18.1056 41.4698 18.4182 41.4642 18.7329C41.4587 19.0476 41.3898 19.3579 41.2617 19.6454C41.1336 19.9329 40.9489 20.1917 40.7186 20.4062L26.6561 34.4687C26.2167 34.9077 25.621 35.1542 24.9999 35.1542C24.3788 35.1542 23.7831 34.9077 23.3436 34.4687L9.28114 20.4062C8.84223 19.9668 8.5957 19.3711 8.5957 18.75C8.5957 18.1289 8.84223 17.5332 9.28114 17.0937Z" fill="#302F2B"/>
</svg>
