<svg width="64" height="64" viewBox="0 0 64 64" fill="none" xmlns="http://www.w3.org/2000/svg">
<path fill-rule="evenodd" clip-rule="evenodd" d="M14 47.748V52C14 52.5304 14.2107 53.0391 14.5858 53.4142C14.9609 53.7893 15.4696 54 16 54H44C45.5913 54 47.1174 53.3679 48.2426 52.2426C49.3679 51.1174 50 49.5913 50 48V46.396C48.1754 47.4479 46.1061 48.0011 44 48H16C15.3067 48 14.64 47.916 14 47.748ZM8 40V12C8 11.7253 8.01333 11.4533 8.04 11.184C8.24716 9.16531 9.21374 7.30079 10.744 5.968C12.2009 4.69881 14.0678 3.99976 16 4H44C47.1826 4 50.2348 5.26428 52.4853 7.51472C54.7357 9.76515 56 12.8174 56 16V48C56 51.1826 54.7357 54.2348 52.4853 56.4853C50.2348 58.7357 47.1826 60 44 60H16C13.8783 60 11.8434 59.1571 10.3431 57.6569C8.84285 56.1566 8 54.1217 8 52V40ZM14 40C14 40.5304 14.2107 41.0391 14.5858 41.4142C14.9609 41.7893 15.4696 42 16 42H44C45.5913 42 47.1174 41.3679 48.2426 40.2426C49.3679 39.1174 50 37.5913 50 36V16C50 15.584 49.96 15.1813 49.88 14.792C49.6017 13.4382 48.8647 12.222 47.7933 11.3489C46.722 10.4758 45.3821 9.99934 44 10H16C15.4696 10 14.9609 10.2107 14.5858 10.5858C14.2107 10.9609 14 11.4696 14 12V40ZM22 21C22 20.2044 22.3161 19.4413 22.8787 18.8787C23.4413 18.3161 24.2044 18 25 18H39C39.7956 18 40.5587 18.3161 41.1213 18.8787C41.6839 19.4413 42 20.2044 42 21C42 21.7956 41.6839 22.5587 41.1213 23.1213C40.5587 23.6839 39.7956 24 39 24H25C24.2044 24 23.4413 23.6839 22.8787 23.1213C22.3161 22.5587 22 21.7956 22 21Z" fill="#8F121E"/>
</svg>
