<svg width="32" height="32" viewBox="0 0 32 32" fill="none" xmlns="http://www.w3.org/2000/svg">
<path fill-rule="evenodd" clip-rule="evenodd" d="M16 19.048L17.952 20.722L23.928 25.842C24.0223 25.9225 24.1377 25.9744 24.2605 25.9914C24.3833 26.0085 24.5084 25.9901 24.6211 25.9384C24.7338 25.8867 24.8294 25.8038 24.8965 25.6995C24.9636 25.5953 24.9995 25.474 25 25.35V9C25 8.20435 24.6839 7.44129 24.1213 6.87868C23.5587 6.31607 22.7956 6 22 6H10C9.20435 6 8.44129 6.31607 7.87868 6.87868C7.31607 7.44129 7 8.20435 7 9V25.35C7.00007 25.4742 7.03571 25.5957 7.10269 25.7003C7.16967 25.8048 7.26519 25.888 7.37796 25.94C7.49073 25.9919 7.61602 26.0105 7.73902 25.9935C7.86201 25.9765 7.97756 25.9246 8.072 25.844L14.048 20.724L16 19.048ZM28 9C28 7.4087 27.3679 5.88258 26.2426 4.75736C25.1174 3.63214 23.5913 3 22 3H10C8.4087 3 6.88258 3.63214 5.75736 4.75736C4.63214 5.88258 4 7.4087 4 9V25.35C3.99976 26.0482 4.1998 26.7319 4.57639 27.3198C4.95297 27.9078 5.4903 28.3754 6.12463 28.6672C6.75896 28.959 7.46367 29.0627 8.15518 28.9661C8.84669 28.8695 9.49597 28.5765 10.026 28.122L16 23L21.974 28.12C22.5038 28.5743 23.1527 28.8672 23.8438 28.964C24.535 29.0608 25.2394 28.9574 25.8736 28.6661C26.5077 28.3748 27.0451 27.9077 27.422 27.3204C27.7989 26.733 27.9995 26.0499 28 25.352V9Z" fill="#302F2B"/>
</svg>
