<svg width="24" height="24" viewBox="0 0 24 24" fill="none" xmlns="http://www.w3.org/2000/svg">
<path fill-rule="evenodd" clip-rule="evenodd" d="M20.25 15.6315V8.21253L17.25 9.28353V12.375C17.25 12.6734 17.1315 12.9595 16.9205 13.1705C16.7095 13.3815 16.4234 13.5 16.125 13.5C15.8266 13.5 15.5405 13.3815 15.3295 13.1705C15.1185 12.9595 15 12.6734 15 12.375V10.0875L11.625 11.2935V20.4255L18.7905 17.7375C19.2192 17.5767 19.5885 17.2889 19.8493 16.9126C20.1101 16.5363 20.2499 16.0894 20.25 15.6315ZM16.869 7.03053L19.269 6.17403C19.1842 6.11761 19.0966 6.06554 19.0065 6.01803L14.2485 3.64053C13.9718 3.50219 13.6695 3.4224 13.3606 3.40614C13.0517 3.38988 12.7427 3.4375 12.453 3.54603L11.0415 4.07553L16.6275 6.86853C16.7175 6.91353 16.7975 6.96753 16.8675 7.03053M8.166 5.15253L13.983 8.06253L10.5735 9.27903L4.866 6.42453C4.974 6.36153 5.089 6.30703 5.211 6.26103L8.166 5.15253ZM9.375 11.196L3.75 8.38353V15.969C3.75001 16.3871 3.86651 16.7969 4.08642 17.1525C4.30633 17.508 4.62095 17.7953 4.995 17.982L9.375 20.172V11.196ZM1.5 8.36853C1.5 7.71453 1.641 7.08453 1.899 6.51453C1.94402 6.3047 2.04811 6.11213 2.199 5.95953C2.712 5.14953 3.4815 4.50753 4.419 4.15503L11.6655 1.44003C12.2448 1.22274 12.8627 1.12724 13.4805 1.1595C14.0984 1.19176 14.703 1.35109 15.2565 1.62753L20.0145 4.00653C20.7615 4.38052 21.3897 4.95508 21.8287 5.66587C22.2677 6.37666 22.5001 7.19561 22.5 8.03103V15.6315C22.5 16.5476 22.2203 17.4419 21.6984 18.1948C21.1766 18.9478 20.4373 19.5235 19.5795 19.845L12.3375 22.56C11.758 22.7775 11.1398 22.8731 10.5217 22.8409C9.90356 22.8086 9.29872 22.6492 8.745 22.3725L3.987 19.9935C3.23969 19.6198 2.61121 19.0453 2.17195 18.3345C1.7327 17.6237 1.50003 16.8046 1.5 15.969V8.36853Z" fill="#302F2B"/>
</svg>
