<svg width="32" height="32" viewBox="0 0 32 32" fill="none" xmlns="http://www.w3.org/2000/svg">
<path fill-rule="evenodd" clip-rule="evenodd" d="M24 9H26.614C27.2928 8.99992 27.9624 9.15742 28.57 9.46008C29.1777 9.76274 29.7067 10.2023 30.1156 10.7442C30.5245 11.2861 30.802 11.9155 30.9263 12.5828C31.0506 13.2502 31.0184 13.9372 30.832 14.59L28.244 23.65C27.8855 24.9035 27.1284 26.0061 26.0873 26.791C25.0462 27.5759 23.7778 28.0003 22.474 28H9.526C8.22195 28.0002 6.95335 27.5755 5.91224 26.7902C4.87112 26.005 4.11418 24.9019 3.756 23.648L1.168 14.59C0.981658 13.9372 0.94937 13.2502 1.07368 12.5828C1.198 11.9155 1.47551 11.2861 1.88439 10.7442C2.29327 10.2023 2.82235 9.76274 3.42997 9.46008C4.03759 9.15742 4.70717 8.99992 5.386 9H8V6C8 4.93913 8.42143 3.92172 9.17158 3.17157C9.92172 2.42143 10.9391 2 12 2H20C21.0609 2 22.0783 2.42143 22.8284 3.17157C23.5786 3.92172 24 4.93913 24 6V9ZM11 9V6C11 5.73478 11.1054 5.48043 11.2929 5.29289C11.4804 5.10536 11.7348 5 12 5H20C20.2652 5 20.5196 5.10536 20.7071 5.29289C20.8946 5.48043 21 5.73478 21 6V9H11ZM22.474 25H9.526C8.87415 24.9999 8.24008 24.7874 7.71972 24.3948C7.19937 24.0022 6.82105 23.4508 6.642 22.824L4.054 13.766C3.99523 13.5598 3.98507 13.3428 4.02435 13.1321C4.06363 12.9213 4.15126 12.7226 4.28035 12.5514C4.40945 12.3802 4.57649 12.2414 4.76834 12.1457C4.96019 12.05 5.17162 12.0001 5.386 12H26.614C26.8284 12.0001 27.0398 12.05 27.2317 12.1457C27.4235 12.2414 27.5906 12.3802 27.7197 12.5514C27.8487 12.7226 27.9364 12.9213 27.9757 13.1321C28.0149 13.3428 28.0048 13.5598 27.946 13.766L25.358 22.826C25.1786 23.4524 24.8001 24.0034 24.2798 24.3956C23.7595 24.7878 23.1256 25 22.474 25ZM13.294 22.47C12.9042 22.5477 12.4994 22.4675 12.1686 22.247C11.8379 22.0265 11.6082 21.6838 11.53 21.294L10.53 16.294C10.4669 15.9103 10.5553 15.517 10.7766 15.1972C10.9978 14.8774 11.3346 14.656 11.716 14.5797C12.0973 14.5035 12.4933 14.5783 12.8206 14.7884C13.1478 14.9985 13.3807 15.3275 13.47 15.706L14.47 20.706C14.5477 21.0958 14.4675 21.5006 14.247 21.8314C14.0265 22.1621 13.6838 22.3918 13.294 22.47ZM21.47 16.294C21.5163 16.0981 21.5226 15.8948 21.4886 15.6964C21.4547 15.4979 21.3811 15.3083 21.2723 15.1389C21.1636 14.9695 21.0218 14.8237 20.8555 14.7103C20.6892 14.5968 20.5017 14.518 20.3043 14.4785C20.1069 14.439 19.9035 14.4397 19.7064 14.4805C19.5092 14.5212 19.3223 14.6013 19.1567 14.7158C18.9912 14.8304 18.8503 14.9771 18.7427 15.1472C18.635 15.3173 18.5627 15.5073 18.53 15.706L17.53 20.706C17.4838 20.9019 17.4774 21.1052 17.5114 21.3036C17.5453 21.5021 17.6189 21.6917 17.7277 21.8611C17.8365 22.0305 17.9782 22.1763 18.1445 22.2897C18.3108 22.4032 18.4983 22.482 18.6957 22.5215C18.8931 22.561 19.0965 22.5603 19.2936 22.5195C19.4908 22.4788 19.6777 22.3987 19.8433 22.2842C20.0089 22.1696 20.1497 22.0229 20.2573 21.8528C20.365 21.6827 20.4373 21.4927 20.47 21.294L21.47 16.294Z" fill="#302F2B"/>
</svg>
