<svg width="24" height="24" viewBox="0 0 24 24" fill="none" xmlns="http://www.w3.org/2000/svg">
<path fill-rule="evenodd" clip-rule="evenodd" d="M20.232 5.14502C20.3442 5.24121 20.4364 5.35858 20.5033 5.49041C20.5701 5.62224 20.6103 5.76596 20.6216 5.91334C20.6329 6.06072 20.615 6.20889 20.569 6.34936C20.523 6.48983 20.4498 6.61986 20.3535 6.73202L11.3535 17.232C11.2526 17.3497 11.1284 17.4453 10.9888 17.5128C10.8492 17.5803 10.6972 17.6181 10.5423 17.6241C10.3873 17.63 10.2328 17.6038 10.0885 17.5472C9.94416 17.4905 9.81309 17.4047 9.7035 17.295L4.4535 12.045C4.24867 11.8327 4.13541 11.5485 4.13811 11.2535C4.14081 10.9586 4.25926 10.6765 4.46794 10.468C4.67662 10.2595 4.95885 10.1413 5.25382 10.1389C5.54879 10.1365 5.83292 10.25 6.045 10.455L10.437 14.8455L18.6465 5.26802C18.8407 5.0418 19.1168 4.90193 19.4141 4.87915C19.7114 4.85636 20.0056 4.95103 20.232 5.14502Z" fill="#908F8B"/>
</svg>
