<svg width="32" height="32" viewBox="0 0 32 32" fill="none" xmlns="http://www.w3.org/2000/svg">
<path fill-rule="evenodd" clip-rule="evenodd" d="M11 12C11.7956 12 12.5587 11.6839 13.1213 11.1213C13.6839 10.5587 14 9.79565 14 9C14 8.20435 13.6839 7.44129 13.1213 6.87868C12.5587 6.31607 11.7956 6 11 6C10.2044 6 9.44129 6.31607 8.87868 6.87868C8.31607 7.44129 8 8.20435 8 9C8 9.79565 8.31607 10.5587 8.87868 11.1213C9.44129 11.6839 10.2044 12 11 12ZM11 15C12.5913 15 14.1174 14.3679 15.2426 13.2426C16.3679 12.1174 17 10.5913 17 9C17 7.4087 16.3679 5.88258 15.2426 4.75736C14.1174 3.63214 12.5913 3 11 3C9.4087 3 7.88258 3.63214 6.75736 4.75736C5.63214 5.88258 5 7.4087 5 9C5 10.5913 5.63214 12.1174 6.75736 13.2426C7.88258 14.3679 9.4087 15 11 15ZM4.942 20.772C3.388 21.852 3 22.898 3 23.384C3 24.276 3.724 25 4.616 25H17.384C17.8123 24.9989 18.2227 24.8283 18.5255 24.5255C18.8283 24.2227 18.9989 23.8123 19 23.384C19 22.896 18.612 21.85 17.058 20.772C15.584 19.75 13.438 19 11 19C8.562 19 6.416 19.75 4.942 20.772ZM0 23.384C0 19.692 4.95 16 11 16C13.36 16 15.556 16.562 17.354 17.468C19.0758 16.4947 21.0222 15.9886 23 16C27.95 16 32 19.076 32 22.154C32 23.174 31.5948 24.1523 30.8735 24.8735C30.1523 25.5948 29.174 26 28.154 26H21.188C20.356 27.208 18.962 28 17.384 28H4.616C3.39209 27.9989 2.2186 27.5123 1.35316 26.6468C0.487727 25.7814 0.00105921 24.6079 0 23.384ZM21.982 23H28.154C28.622 23 29 22.62 29 22.154C29 21.948 28.808 21.21 27.624 20.374C26.516 19.588 24.874 19 23 19C21.966 19 21.002 19.18 20.16 19.472C21.212 20.54 21.868 21.764 21.982 23ZM25 10C25 10.5304 24.7893 11.0391 24.4142 11.4142C24.0391 11.7893 23.5304 12 23 12C22.4696 12 21.9609 11.7893 21.5858 11.4142C21.2107 11.0391 21 10.5304 21 10C21 9.46957 21.2107 8.96086 21.5858 8.58579C21.9609 8.21071 22.4696 8 23 8C23.5304 8 24.0391 8.21071 24.4142 8.58579C24.7893 8.96086 25 9.46957 25 10ZM28 10C28 11.3261 27.4732 12.5979 26.5355 13.5355C25.5979 14.4732 24.3261 15 23 15C21.6739 15 20.4021 14.4732 19.4645 13.5355C18.5268 12.5979 18 11.3261 18 10C18 8.67392 18.5268 7.40215 19.4645 6.46447C20.4021 5.52678 21.6739 5 23 5C24.3261 5 25.5979 5.52678 26.5355 6.46447C27.4732 7.40215 28 8.67392 28 10Z" fill="#302F2B"/>
</svg>
