<svg width="64" height="64" viewBox="0 0 64 64" fill="none" xmlns="http://www.w3.org/2000/svg">
<path fill-rule="evenodd" clip-rule="evenodd" d="M33.708 44.2921L38.528 39.4721C38.6782 39.3227 38.7973 39.1451 38.8783 38.9494C38.9593 38.7537 39.0007 38.5439 39 38.3321C39.0009 37.9091 38.9179 37.4902 38.7559 37.0996C38.5938 36.7089 38.356 36.3542 38.056 36.0561L33.708 31.7081C33.484 31.4834 33.2177 31.3051 32.9247 31.1834C32.6316 31.0618 32.3174 30.9991 32 30.9991C31.6827 30.9991 31.3685 31.0618 31.0754 31.1834C30.7823 31.3051 30.5161 31.4834 30.292 31.7081L25.944 36.0561C25.6436 36.3547 25.4054 36.71 25.2434 37.1014C25.0814 37.4928 24.9986 37.9125 25 38.3361C25 38.7601 25.168 39.1681 25.472 39.4721L30.292 44.2921C30.7451 44.7449 31.3594 44.9993 32 44.9993C32.6406 44.9993 33.255 44.7449 33.708 44.2921Z" fill="#FCFBF9"/>
<path fill-rule="evenodd" clip-rule="evenodd" d="M64 23.184V23.072C63.9997 21.6735 63.5848 20.3065 62.8077 19.1437C62.0306 17.981 60.9262 17.0748 59.6342 16.5396C58.3421 16.0044 56.9203 15.8644 55.5487 16.1372C54.177 16.4099 52.917 17.0833 51.928 18.072L48.888 21.112L48.792 21.208L47.296 22.704L45.636 24.364C45.47 24.5309 45.2631 24.6512 45.0359 24.7127C44.8087 24.7742 44.5693 24.7747 44.3418 24.7143C44.1143 24.6539 43.9068 24.5346 43.7401 24.3685C43.5733 24.2024 43.4533 23.9953 43.392 23.768L42.772 21.504L42.216 19.464L42.18 19.332L39.58 9.78804C39.1271 8.12468 38.1396 6.6565 36.7698 5.60982C35.4 4.56314 33.7239 3.99609 32 3.99609C30.2761 3.99609 28.6 4.56314 27.2302 5.60982C25.8604 6.6565 24.8729 8.12468 24.42 9.78804L21.82 19.332L21.78 19.46L21.224 21.504L20.608 23.768C20.5469 23.9948 20.4272 24.2015 20.2609 24.3675C20.0947 24.5335 19.8878 24.6528 19.6609 24.7136C19.434 24.7743 19.1952 24.7744 18.9682 24.7138C18.7413 24.6531 18.5343 24.5339 18.368 24.368L16.704 22.704L15.208 21.208L15.112 21.112L12.072 18.072C11.083 17.0833 9.82298 16.4099 8.45132 16.1372C7.07966 15.8644 5.65792 16.0044 4.36584 16.5396C3.07376 17.0748 1.96937 17.981 1.19227 19.1437C0.415167 20.3065 0.000260661 21.6735 0 23.072L0 23.184C0 23.7254 0.0613333 24.2627 0.184 24.796L5.384 47.32C5.57545 48.1541 5.95551 48.9332 6.49498 49.5974C7.03444 50.2617 7.71897 50.7935 8.496 51.152C15.8648 54.5536 23.884 56.3152 32 56.3152C40.116 56.3152 48.1352 54.5536 55.504 51.152C57.08 50.424 58.228 49.012 58.62 47.32L63.816 24.8C63.936 24.2667 63.9973 23.728 64 23.184ZM14.12 28.608C18.108 32.596 24.912 30.788 26.4 25.348L30.208 11.368C30.3142 10.974 30.5474 10.626 30.8713 10.3779C31.1952 10.1297 31.5919 9.99522 32 9.99522C32.4081 9.99522 32.8048 10.1297 33.1287 10.3779C33.4526 10.626 33.6858 10.974 33.792 11.368L37.6 25.348C39.08 30.788 45.888 32.596 49.872 28.608L56.168 22.312C56.3181 22.1627 56.5092 22.0612 56.717 22.0203C56.9247 21.9793 57.14 22.0009 57.3355 22.0822C57.5311 22.1635 57.6982 22.3009 57.8157 22.4771C57.9333 22.6532 57.996 22.8603 57.996 23.072V23.184C57.9951 23.2729 57.9844 23.3615 57.964 23.448L52.812 45.784C46.2786 48.7698 39.1793 50.3152 31.996 50.3152C24.8127 50.3152 17.7134 48.7698 11.18 45.784L6.032 23.448C6.01159 23.3615 6.00085 23.2729 6 23.184V23.072C6.00001 22.8603 6.06274 22.6532 6.18028 22.4771C6.29783 22.3009 6.46491 22.1635 6.66046 22.0822C6.85601 22.0009 7.07126 21.9793 7.27905 22.0203C7.48684 22.0612 7.67785 22.1627 7.828 22.312L14.12 28.608Z" fill="#FCFBF9"/>
</svg>
