<svg width="32" height="32" viewBox="0 0 32 32" fill="none" xmlns="http://www.w3.org/2000/svg">
<path fill-rule="evenodd" clip-rule="evenodd" d="M29.56 14.94C29.8409 15.2213 29.9987 15.6025 29.9987 16C29.9987 16.3975 29.8409 16.7787 29.56 17.06L24.56 22.06C24.4227 22.2074 24.2571 22.3256 24.0731 22.4076C23.8891 22.4895 23.6905 22.5336 23.489 22.5372C23.2876 22.5407 23.0876 22.5037 22.9008 22.4282C22.714 22.3528 22.5444 22.2405 22.4019 22.0981C22.2595 21.9556 22.1472 21.786 22.0718 21.5992C21.9963 21.4124 21.9593 21.2124 21.9628 21.011C21.9664 20.8095 22.0105 20.6109 22.0924 20.4269C22.1744 20.2429 22.2926 20.0773 22.44 19.94L24.88 17.5H9.5C9.10218 17.5 8.72064 17.342 8.43934 17.0607C8.15804 16.7794 8 16.3978 8 16C8 15.6022 8.15804 15.2206 8.43934 14.9393C8.72064 14.658 9.10218 14.5 9.5 14.5H24.88L22.44 12.06C22.175 11.7757 22.0308 11.3996 22.0376 11.011C22.0445 10.6224 22.2019 10.2516 22.4768 9.97676C22.7516 9.70193 23.1224 9.54451 23.511 9.53765C23.8996 9.53079 24.2757 9.67504 24.56 9.94L29.56 14.94ZM19 8.5C19 8.89782 18.842 9.27936 18.5607 9.56066C18.2794 9.84196 17.8978 10 17.5 10C17.1022 10 16.7206 9.84196 16.4393 9.56066C16.158 9.27936 16 8.89782 16 8.5V8C16 7.20435 15.6839 6.44129 15.1213 5.87868C14.5587 5.31607 13.7956 5 13 5H8C7.20435 5 6.44129 5.31607 5.87868 5.87868C5.31607 6.44129 5 7.20435 5 8V24C5 24.7956 5.31607 25.5587 5.87868 26.1213C6.44129 26.6839 7.20435 27 8 27H13C13.7956 27 14.5587 26.6839 15.1213 26.1213C15.6839 25.5587 16 24.7956 16 24V23.5C16 23.1022 16.158 22.7206 16.4393 22.4393C16.7206 22.158 17.1022 22 17.5 22C17.8978 22 18.2794 22.158 18.5607 22.4393C18.842 22.7206 19 23.1022 19 23.5V24C19 25.5913 18.3679 27.1174 17.2426 28.2426C16.1174 29.3679 14.5913 30 13 30H8C6.4087 30 4.88258 29.3679 3.75736 28.2426C2.63214 27.1174 2 25.5913 2 24V8C2 6.4087 2.63214 4.88258 3.75736 3.75736C4.88258 2.63214 6.4087 2 8 2H13C14.5913 2 16.1174 2.63214 17.2426 3.75736C18.3679 4.88258 19 6.4087 19 8V8.5Z" fill="#908F8B"/>
</svg>
