<svg width="24" height="24" viewBox="0 0 24 24" fill="none" xmlns="http://www.w3.org/2000/svg">
<g clip-path="url(#clip0_130_731)">
<path fill-rule="evenodd" clip-rule="evenodd" d="M7.125 8.25C7.7655 8.25 8.3115 8.4945 8.7375 8.925C8.52 7.758 8.1825 6.8025 7.7775 6.084C7.08 4.854 6.324 4.5 5.625 4.5C4.926 4.5 4.17 4.8555 3.474 6.084C2.7525 7.359 2.25 9.375 2.25 12C2.25 14.625 2.7525 16.641 3.474 17.916C4.1685 19.146 4.9245 19.5 5.625 19.5C6.3255 19.5 7.08 19.1445 7.776 17.916C8.184 17.196 8.52 16.242 8.736 15.0735C8.52773 15.2901 8.2774 15.4618 8.00037 15.5781C7.72334 15.6945 7.42545 15.7529 7.125 15.75C5.511 15.75 4.5 14.205 4.5 12C4.5 9.795 5.511 8.25 7.125 8.25ZM11.25 12C11.25 17.733 9.0825 21.75 5.625 21.75C2.1675 21.75 0 17.733 0 12C0 6.267 2.1675 2.25 5.625 2.25C9.0825 2.25 11.25 6.267 11.25 12ZM21.4875 15.075C21.27 16.242 20.9325 17.1975 20.5275 17.916C19.8315 19.146 19.0755 19.5 18.375 19.5C17.6745 19.5 16.92 19.1445 16.224 17.916C15.5025 16.641 15 14.625 15 12C15 9.375 15.5025 7.359 16.224 6.084C16.9185 4.854 17.6745 4.5 18.375 4.5C19.0755 4.5 19.83 4.8555 20.526 6.084C20.934 6.804 21.27 7.758 21.486 8.9265C21.2777 8.70993 21.0274 8.5382 20.7504 8.42187C20.4733 8.30554 20.1755 8.24705 19.875 8.25C18.261 8.25 17.25 9.795 17.25 12C17.25 14.205 18.261 15.75 19.875 15.75C20.1756 15.7533 20.4737 15.6952 20.751 15.5791C21.0283 15.463 21.2789 15.2915 21.4875 15.075ZM24 12C24 17.733 21.8325 21.75 18.375 21.75C14.9175 21.75 12.75 17.733 12.75 12C12.75 6.267 14.9175 2.25 18.375 2.25C21.8325 2.25 24 6.267 24 12Z" fill="#FCFBF9"/>
</g>
<defs>
<clipPath id="clip0_130_731">
<rect width="24" height="24" fill="white"/>
</clipPath>
</defs>
</svg>
