<svg width="32" height="32" viewBox="0 0 32 32" fill="none" xmlns="http://www.w3.org/2000/svg">
<path fill-rule="evenodd" clip-rule="evenodd" d="M27 16C27 18.9174 25.8411 21.7153 23.7782 23.7782C21.7153 25.8411 18.9174 27 16 27C13.0826 27 10.2847 25.8411 8.22183 23.7782C6.15893 21.7153 5 18.9174 5 16C5 13.0826 6.15893 10.2847 8.22183 8.22183C10.2847 6.15893 13.0826 5 16 5C18.9174 5 21.7153 6.15893 23.7782 8.22183C25.8411 10.2847 27 13.0826 27 16ZM30 16C30 19.713 28.525 23.274 25.8995 25.8995C23.274 28.525 19.713 30 16 30C12.287 30 8.72601 28.525 6.1005 25.8995C3.475 23.274 2 19.713 2 16C2 12.287 3.475 8.72601 6.1005 6.1005C8.72601 3.475 12.287 2 16 2C19.713 2 23.274 3.475 25.8995 6.1005C28.525 8.72601 30 12.287 30 16ZM13.34 19.33C13.151 18.9946 12.8403 18.7447 12.4722 18.632C12.104 18.5193 11.7067 18.5525 11.3623 18.7247C11.018 18.8969 10.753 19.1948 10.6223 19.5569C10.4916 19.9191 10.5051 20.3176 10.66 20.67C11.466 22.288 13.564 23.5 16 23.5C18.436 23.5 20.534 22.288 21.34 20.67C21.4398 20.4929 21.5025 20.2975 21.5244 20.0954C21.5463 19.8934 21.527 19.689 21.4675 19.4947C21.408 19.3003 21.3097 19.1201 21.1784 18.965C21.0472 18.8098 20.8858 18.6829 20.704 18.592C20.5222 18.5011 20.3239 18.4481 20.121 18.4362C19.9181 18.4243 19.7149 18.4538 19.5238 18.5228C19.3326 18.5918 19.1575 18.699 19.009 18.8377C18.8605 18.9765 18.7418 19.144 18.66 19.33C18.466 19.712 17.564 20.5 16 20.5C14.436 20.5 13.534 19.712 13.34 19.33ZM20 16C19.6022 16 19.2206 15.842 18.9393 15.5607C18.658 15.2794 18.5 14.8978 18.5 14.5V12.5C18.5 12.1022 18.658 11.7206 18.9393 11.4393C19.2206 11.158 19.6022 11 20 11C20.3978 11 20.7794 11.158 21.0607 11.4393C21.342 11.7206 21.5 12.1022 21.5 12.5V14.5C21.5 14.8978 21.342 15.2794 21.0607 15.5607C20.7794 15.842 20.3978 16 20 16ZM10.5 14.5C10.5 14.8978 10.658 15.2794 10.9393 15.5607C11.2206 15.842 11.6022 16 12 16C12.3978 16 12.7794 15.842 13.0607 15.5607C13.342 15.2794 13.5 14.8978 13.5 14.5V12.5C13.5 12.1022 13.342 11.7206 13.0607 11.4393C12.7794 11.158 12.3978 11 12 11C11.6022 11 11.2206 11.158 10.9393 11.4393C10.658 11.7206 10.5 12.1022 10.5 12.5V14.5Z" fill="#302F2B"/>
</svg>
