<svg width="32" height="32" viewBox="0 0 32 32" fill="none" xmlns="http://www.w3.org/2000/svg">
<g clip-path="url(#clip0_130_812)">
<mask id="mask0_130_812" style="mask-type:luminance" maskUnits="userSpaceOnUse" x="0" y="0" width="32" height="32">
<path d="M32 0H0V32H32V0Z" fill="white"/>
</mask>
<g mask="url(#mask0_130_812)">
<path fill-rule="evenodd" clip-rule="evenodd" d="M27 12.0001L21.188 4.52609C20.6309 3.81031 19.8447 3.30773 18.9611 3.10255C18.0776 2.89736 17.1504 3.00204 16.3348 3.39904C15.5192 3.79605 14.8649 4.46126 14.4813 5.28324C14.0978 6.10522 14.0083 7.03403 14.228 7.91409L14.748 10.0001H3.88402C2.92696 9.99968 2.00345 10.3526 1.29063 10.9913C0.577816 11.6299 0.125885 12.5092 0.0215282 13.4606C-0.0828285 14.4119 0.16774 15.3683 0.725168 16.1463C1.2826 16.9243 2.10763 17.469 3.04202 17.6761L9.00002 19.0001L9.91402 24.4881C10.0513 25.3131 10.3596 26.1004 10.8191 26.7992C11.2786 27.4981 11.8791 28.0932 12.5821 28.5463C13.2851 28.9994 14.0751 29.3005 14.9014 29.4304C15.7277 29.5602 16.5719 29.5158 17.38 29.3001L26 27.0001L27 12.0001ZM16.606 26.4001L23.15 24.6561L23.93 12.9401L18.82 6.36809C18.685 6.19605 18.495 6.07551 18.2819 6.02658C18.0687 5.97765 17.8452 6.00329 17.6487 6.09923C17.4521 6.19516 17.2944 6.35558 17.2019 6.55374C17.1093 6.75189 17.0875 6.97579 17.14 7.18809L17.66 9.27209L18.592 13.0001H3.88402C3.66541 12.9988 3.45408 13.0786 3.29085 13.2241C3.12763 13.3695 3.02408 13.5702 3.00021 13.7876C2.97634 14.0049 3.03384 14.2233 3.16161 14.4007C3.28938 14.5781 3.47834 14.7019 3.69202 14.7481L9.65202 16.0721L11.626 16.5121L11.958 18.5061L12.874 23.9941C12.9427 24.4065 13.0968 24.8 13.3265 25.1494C13.5562 25.4987 13.8563 25.7962 14.2077 26.0227C14.5591 26.2493 14.954 26.3999 15.367 26.4649C15.78 26.5298 16.202 26.5078 16.606 26.4001ZM30.996 26.6061C30.9611 26.9976 30.7739 27.3598 30.4746 27.6147C30.1754 27.8696 29.788 27.9968 29.3959 27.9691C29.0038 27.9413 28.6383 27.7607 28.378 27.4661C28.1177 27.1716 27.9834 26.7866 28.004 26.3941L29.004 12.3941C29.0145 12.1951 29.0645 12.0001 29.1511 11.8207C29.2378 11.6412 29.3593 11.4808 29.5086 11.3488C29.6579 11.2169 29.8321 11.116 30.0208 11.0521C30.2096 10.9881 30.4092 10.9625 30.608 10.9766C30.8068 10.9906 31.0007 11.0442 31.1786 11.1341C31.3565 11.224 31.5146 11.3484 31.6438 11.5001C31.7731 11.6518 31.8708 11.8278 31.9312 12.0177C31.9917 12.2076 32.0137 12.4076 31.996 12.6061L30.996 26.6061Z" fill="#302F2B"/>
</g>
</g>
<defs>
<clipPath id="clip0_130_812">
<rect width="32" height="32" fill="white" transform="matrix(-1 0 0 1 32 0)"/>
</clipPath>
</defs>
</svg>
