<svg width="24" height="24" viewBox="0 0 24 24" fill="none" xmlns="http://www.w3.org/2000/svg">
<g clip-path="url(#clip0_130_757)">
<mask id="mask0_130_757" style="mask-type:luminance" maskUnits="userSpaceOnUse" x="0" y="0" width="24" height="24">
<path d="M0 0H24V24H0V0Z" fill="white"/>
</mask>
<g mask="url(#mask0_130_757)">
<path fill-rule="evenodd" clip-rule="evenodd" d="M3.74998 8.99994L8.10898 3.39444C8.52685 2.85761 9.1165 2.48067 9.77916 2.32679C10.4418 2.1729 11.1372 2.25141 11.7489 2.54916C12.3606 2.84691 12.8514 3.34582 13.139 3.9623C13.4267 4.57879 13.4937 5.2754 13.329 5.93544L12.939 7.49994H21.087C21.8048 7.49964 22.4974 7.76436 23.032 8.24334C23.5666 8.72231 23.9056 9.3818 23.9839 10.0953C24.0621 10.8088 23.8742 11.5261 23.4561 12.1096C23.0381 12.6931 22.4193 13.1016 21.7185 13.2569L17.25 14.2499L16.5645 18.3659C16.4615 18.9847 16.2303 19.5751 15.8857 20.0993C15.5411 20.6235 15.0907 21.0698 14.5634 21.4096C14.0361 21.7494 13.4436 21.9753 12.824 22.0726C12.2043 22.17 11.5711 22.1367 10.965 21.9749L4.49998 20.2499L3.74998 8.99994ZM11.5455 19.7999L6.63749 18.4919L6.05248 9.70494L9.88498 4.77594C9.98626 4.64691 10.1287 4.55651 10.2886 4.51981C10.4485 4.48312 10.6161 4.50235 10.7635 4.5743C10.9109 4.64625 11.0292 4.76657 11.0986 4.91518C11.168 5.0638 11.1844 5.23172 11.145 5.39094L10.755 6.95395L10.056 9.74994H21.087C21.2509 9.749 21.4094 9.80884 21.5319 9.91792C21.6543 10.027 21.7319 10.1776 21.7498 10.3405C21.7677 10.5035 21.7246 10.6674 21.6288 10.8004C21.533 10.9335 21.3912 11.0263 21.231 11.0609L16.761 12.0539L15.2805 12.3839L15.0315 13.8794L14.3445 17.9954C14.293 18.3048 14.1774 18.5999 14.0051 18.8619C13.8329 19.1239 13.6078 19.347 13.3442 19.5169C13.0807 19.6868 12.7845 19.7998 12.4748 19.8485C12.165 19.8973 11.8485 19.8807 11.5455 19.7999ZM0.752985 19.9544C0.779181 20.2481 0.9196 20.5197 1.14403 20.7109C1.36846 20.9021 1.65897 20.9975 1.95305 20.9767C2.24713 20.9558 2.52128 20.8204 2.71651 20.5995C2.91174 20.3786 3.01246 20.0899 2.99698 19.7954L2.24698 9.29544C2.23914 9.14619 2.20163 8.99999 2.13666 8.86539C2.07168 8.73079 1.98053 8.61049 1.86853 8.51151C1.75654 8.41253 1.62594 8.33686 1.48438 8.28892C1.34281 8.24098 1.19311 8.22173 1.04402 8.2323C0.894932 8.24286 0.749442 8.28303 0.61605 8.35045C0.482658 8.41787 0.364038 8.5112 0.267119 8.62498C0.1702 8.73876 0.0969244 8.87071 0.0515734 9.01313C0.0062223 9.15555 -0.0102954 9.30557 0.002985 9.45444L0.752985 19.9544Z" fill="#FCFBF9"/>
</g>
</g>
<defs>
<clipPath id="clip0_130_757">
<rect width="24" height="24" fill="white"/>
</clipPath>
</defs>
</svg>
