<svg width="64" height="64" viewBox="0 0 64 64" fill="none" xmlns="http://www.w3.org/2000/svg">
<path fill-rule="evenodd" clip-rule="evenodd" d="M6.532 11.184C9.58 7.83597 13.932 5.99597 19.04 5.99597C23.696 5.99597 28.668 8.19597 32 12.5C35.312 8.19997 40.264 5.99597 44.96 5.99597C50.056 5.99597 54.4 7.82797 57.456 11.168C60.48 14.48 62 19.016 62 24.048C62 32.712 57.548 39.684 51.912 45.104C46.292 50.512 39.232 54.636 33.38 57.664C32.9514 57.8857 32.4756 58.0007 31.993 57.9993C31.5105 57.9979 31.0353 57.8802 30.608 57.656C24.756 54.596 17.696 50.504 12.076 45.124C6.44 39.72 2 32.772 2 24.052C2 19.032 3.512 14.496 6.532 11.184ZM10.968 15.224C9.148 17.224 8 20.212 8 24.052C8 30.548 11.264 36.036 16.228 40.788C20.812 45.18 26.628 48.728 32.008 51.608C37.348 48.768 43.168 45.192 47.756 40.78C52.728 35.992 56 30.48 56 24.052C56 20.2 54.848 17.212 53.024 15.212C51.232 13.256 48.56 12 44.96 12C41.056 12 36.588 14.512 34.852 19.8C34.6557 20.4016 34.2741 20.9258 33.7618 21.2975C33.2496 21.6692 32.6329 21.8693 32 21.8693C31.3671 21.8693 30.7504 21.6692 30.2382 21.2975C29.7259 20.9258 29.3443 20.4016 29.148 19.8C27.416 14.52 22.9 12 19.04 12C15.428 12 12.76 13.256 10.968 15.224Z" fill="#8F121E"/>
</svg>
