<svg width="24" height="24" viewBox="0 0 24 24" fill="none" xmlns="http://www.w3.org/2000/svg">
<path fill-rule="evenodd" clip-rule="evenodd" d="M4.6875 10.5C4.6875 8.5606 5.45792 6.70064 6.82928 5.32928C8.20064 3.95792 10.0606 3.1875 12 3.1875C13.9394 3.1875 15.7994 3.95792 17.1707 5.32928C18.5421 6.70064 19.3125 8.5606 19.3125 10.5C19.3125 13.296 18.1515 14.943 16.782 16.2225C16.2045 16.7625 15.6345 17.1975 15.027 17.6595L14.4795 18.0795C14.0702 18.3909 13.6791 18.7255 13.308 19.0815C12.9435 19.4415 12.5055 19.944 12.213 20.5965C12.1822 20.6731 12.1333 20.741 12.0705 20.7945L12.048 20.8065C12.048 20.8065 12.033 20.8125 12 20.8125L11.952 20.808L11.9295 20.7945C11.8669 20.7414 11.818 20.674 11.787 20.598C11.5185 20.0299 11.1472 19.5162 10.692 19.083C10.3209 18.727 9.92977 18.3924 9.5205 18.081C9.3335 17.936 9.1505 17.796 8.9715 17.661C8.36315 17.2108 7.77791 16.7302 7.218 16.221C5.85 14.9445 4.6875 13.2975 4.6875 10.5ZM21.75 10.5C21.75 15.6 18.651 17.9625 16.455 19.6365C15.504 20.364 14.721 20.9595 14.4375 21.594C14.0325 22.5 13.182 23.25 12 23.25C10.818 23.25 9.969 22.5 9.5625 21.594C9.2775 20.9595 8.4975 20.364 7.5435 19.6365C5.349 17.9625 2.25 15.5985 2.25 10.5C2.25 7.91414 3.27723 5.43419 5.10571 3.60571C6.93419 1.77723 9.41414 0.75 12 0.75C14.5859 0.75 17.0658 1.77723 18.8943 3.60571C20.7228 5.43419 21.75 7.91414 21.75 10.5ZM14.25 10.5C14.25 11.0967 14.0129 11.669 13.591 12.091C13.169 12.5129 12.5967 12.75 12 12.75C11.4033 12.75 10.831 12.5129 10.409 12.091C9.98705 11.669 9.75 11.0967 9.75 10.5C9.75 9.90326 9.98705 9.33097 10.409 8.90901C10.831 8.48705 11.4033 8.25 12 8.25C12.5967 8.25 13.169 8.48705 13.591 8.90901C14.0129 9.33097 14.25 9.90326 14.25 10.5ZM16.5 10.5C16.5 11.6935 16.0259 12.8381 15.182 13.682C14.3381 14.5259 13.1935 15 12 15C10.8065 15 9.66193 14.5259 8.81802 13.682C7.97411 12.8381 7.5 11.6935 7.5 10.5C7.5 9.30653 7.97411 8.16193 8.81802 7.31802C9.66193 6.47411 10.8065 6 12 6C13.1935 6 14.3381 6.47411 15.182 7.31802C16.0259 8.16193 16.5 9.30653 16.5 10.5Z" fill="#302F2B"/>
</svg>
