<svg width="262" height="44" viewBox="0 0 262 44" fill="none" xmlns="http://www.w3.org/2000/svg">
<path d="M50.7909 33.1045C50.7909 32.4359 50.8029 31.815 50.8268 31.2419C50.8506 30.645 50.8626 30.036 50.8626 29.4152C50.8865 28.7943 50.9103 28.1376 50.9342 27.4451C50.9581 26.7287 50.97 25.9288 50.97 25.0453C50.97 24.2811 50.9581 23.5767 50.9342 22.9319C50.9342 22.2872 50.9223 21.6663 50.8984 21.0693C50.8745 20.4485 50.8506 19.8396 50.8268 19.2426C50.8029 18.6456 50.7909 18.0128 50.7909 17.3442C50.7909 16.9143 50.9223 16.58 51.185 16.3412C51.4715 16.0786 51.8178 15.9592 52.2237 15.983C52.5103 16.0069 52.761 16.0308 52.9759 16.0547C53.2147 16.0786 53.5013 16.0905 53.8356 16.0905C54.6475 16.0905 55.3519 16.0547 55.9489 15.983C56.5697 15.9114 57.1309 15.8278 57.6324 15.7323C58.1577 15.6368 58.6592 15.5532 59.1368 15.4816C59.6144 15.4099 60.1158 15.3741 60.6412 15.3741C62.0739 15.3741 63.3754 15.6129 64.5454 16.0905C65.7394 16.5442 66.7662 17.2009 67.6259 18.0606C68.4855 18.9202 69.1422 19.947 69.5959 21.141C70.0735 22.3111 70.3123 23.6125 70.3123 25.0453C70.3123 25.9288 70.3242 26.7287 70.3481 27.4451C70.372 28.1376 70.3839 28.7943 70.3839 29.4152C70.4078 30.036 70.4317 30.645 70.4556 31.2419C70.4795 31.815 70.4914 32.4359 70.4914 33.1045C70.4914 33.3194 70.3959 33.5105 70.2048 33.6776C70.0138 33.8448 69.775 33.9761 69.4885 34.0716C69.2019 34.1672 68.9034 34.2388 68.593 34.2866C68.2826 34.3343 68.0199 34.3582 67.805 34.3582C67.5901 34.3582 67.3274 34.3343 67.017 34.2866C66.7065 34.2388 66.408 34.1672 66.1215 34.0716C65.8349 33.9761 65.5961 33.8448 65.4051 33.6776C65.2141 33.5105 65.1185 33.3194 65.1185 33.1045C65.1185 32.4359 65.1305 31.815 65.1544 31.2419C65.1782 30.645 65.1902 30.036 65.1902 29.4152C65.2141 28.7943 65.2379 28.1376 65.2618 27.4451C65.2857 26.7287 65.2976 25.9288 65.2976 25.0453C65.2976 23.0633 64.9275 21.6783 64.1873 20.8903C63.447 20.0784 62.265 19.6724 60.6412 19.6724C59.0174 19.6724 57.8353 20.0784 57.0951 20.8903C56.3548 21.6783 55.9847 23.0633 55.9847 25.0453C55.9847 25.9288 55.9966 26.7287 56.0205 27.4451C56.0444 28.1376 56.0563 28.7943 56.0563 29.4152C56.0802 30.036 56.1041 30.645 56.128 31.2419C56.1519 31.815 56.1638 32.4359 56.1638 33.1045C56.1638 33.3194 56.0683 33.5105 55.8772 33.6776C55.6862 33.8448 55.4474 33.9761 55.1609 34.0716C54.8743 34.1672 54.5758 34.2388 54.2654 34.2866C53.955 34.3343 53.6923 34.3582 53.4774 34.3582C53.2625 34.3582 52.9998 34.3343 52.6894 34.2866C52.3789 34.2388 52.0804 34.1672 51.7939 34.0716C51.5073 33.9761 51.2685 33.8448 51.0775 33.6776C50.8865 33.5105 50.7909 33.3194 50.7909 33.1045ZM86.2392 15.3741C87.457 15.3741 88.5913 15.5413 89.642 15.8756C90.7165 16.186 91.6478 16.6159 92.4358 17.1651C93.2239 17.7143 93.8447 18.371 94.2984 19.1351C94.776 19.8993 95.0148 20.735 95.0148 21.6424C95.0148 22.7648 94.776 23.708 94.2984 24.4721C93.8447 25.2124 93.2239 25.8213 92.4358 26.2989C91.6478 26.7526 90.7165 27.075 89.642 27.266C88.5913 27.4571 87.457 27.5526 86.2392 27.5526C85.3556 27.5526 84.5437 27.4929 83.8035 27.3735C83.0871 27.2541 82.514 27.1347 82.0841 27.0153C81.8454 26.9675 81.6663 27.0034 81.5469 27.1228C81.4513 27.2183 81.4275 27.3615 81.4752 27.5526C81.5469 27.8391 81.6782 28.1496 81.8692 28.4839C82.0603 28.8182 82.3349 29.1286 82.6931 29.4152C83.0513 29.7017 83.5169 29.9405 84.09 30.1315C84.6631 30.3226 85.3795 30.4181 86.2392 30.4181C86.9078 30.4181 87.4809 30.3703 87.9585 30.2748C88.4599 30.1554 88.8898 30.0122 89.2479 29.845C89.6061 29.6778 89.9166 29.4868 90.1792 29.2719C90.4419 29.057 90.6807 28.8421 90.8956 28.6272C91.2299 28.2928 91.6478 28.1257 92.1493 28.1257C92.4358 28.1257 92.7104 28.1854 92.9731 28.3048C93.2597 28.4242 93.5104 28.5913 93.7253 28.8062C93.9402 28.9973 94.1193 29.2361 94.2626 29.5226C94.4059 29.7853 94.4775 30.0838 94.4775 30.4181C94.4775 30.8718 94.2984 31.3494 93.9402 31.8509C93.582 32.3523 93.0567 32.818 92.3642 33.2478C91.6717 33.6776 90.812 34.0239 89.7852 34.2866C88.7584 34.5731 87.5764 34.7164 86.2392 34.7164C84.7586 34.7164 83.4214 34.4776 82.2274 34C81.0335 33.5463 80.0186 32.8896 79.1828 32.03C78.347 31.1703 77.7023 30.1554 77.2486 28.9853C76.7949 27.7914 76.568 26.478 76.568 25.0453C76.568 23.6125 76.7949 22.3111 77.2486 21.141C77.7023 19.947 78.347 18.9202 79.1828 18.0606C80.0186 17.2009 81.0335 16.5442 82.2274 16.0905C83.4214 15.6129 84.7586 15.3741 86.2392 15.3741ZM82.0841 23.0752C82.5379 23.1707 83.1468 23.2901 83.9109 23.4334C84.6751 23.5528 85.4511 23.6125 86.2392 23.6125C87.4092 23.6125 88.3883 23.4453 89.1763 23.111C89.9643 22.7528 90.3583 22.2633 90.3583 21.6424C90.3583 21.0216 89.9643 20.544 89.1763 20.2097C88.3883 19.8515 87.4092 19.6724 86.2392 19.6724C85.4273 19.6724 84.7348 19.756 84.1617 19.9231C83.5885 20.0903 83.111 20.3052 82.7289 20.5679C82.3707 20.8067 82.0961 21.0693 81.9051 21.3559C81.714 21.6424 81.5827 21.9171 81.511 22.1797C81.4633 22.3708 81.4872 22.5618 81.5827 22.7528C81.7021 22.92 81.8692 23.0275 82.0841 23.0752ZM101.827 25.0453C101.827 24.2811 101.815 23.5767 101.792 22.9319C101.768 22.2872 101.732 21.6663 101.684 21.0693C101.66 20.4485 101.624 19.8396 101.577 19.2426C101.553 18.6456 101.529 18.0128 101.505 17.3442C101.481 16.9143 101.601 16.5681 101.863 16.3054C102.126 16.0427 102.472 15.9353 102.902 15.983C103.189 16.0069 103.439 16.0308 103.654 16.0547C103.893 16.0786 104.18 16.0905 104.514 16.0905C105.326 16.0905 106.03 16.0547 106.627 15.983C107.248 15.9114 107.809 15.8278 108.311 15.7323C108.836 15.6368 109.337 15.5532 109.815 15.4816C110.293 15.4099 110.794 15.3741 111.319 15.3741C112.776 15.3741 114.089 15.6129 115.26 16.0905C116.453 16.5442 117.468 17.2009 118.304 18.0606C119.164 18.8963 119.82 19.9112 120.274 21.1052C120.752 22.2753 120.991 23.5886 120.991 25.0453C120.991 26.5019 120.752 27.8272 120.274 29.0212C119.82 30.1912 119.164 31.2061 118.304 32.0658C117.468 32.9016 116.453 33.5463 115.26 34C114.089 34.4776 112.776 34.7164 111.319 34.7164C111.033 34.7164 110.699 34.6925 110.317 34.6447C109.934 34.597 109.54 34.5373 109.134 34.4656C108.752 34.4179 108.37 34.3582 107.988 34.2866C107.606 34.2388 107.284 34.191 107.021 34.1433C106.544 34.0716 106.329 34.2627 106.376 34.7164C106.448 35.5522 106.484 37.1043 106.484 39.3728C106.484 39.5878 106.388 39.7788 106.197 39.946C106.03 40.1131 105.815 40.2444 105.553 40.34C105.314 40.4355 105.039 40.5071 104.729 40.5549C104.442 40.6026 104.191 40.6265 103.977 40.6265C103.762 40.6265 103.499 40.6026 103.189 40.5549C102.902 40.5071 102.627 40.4355 102.365 40.34C102.126 40.2444 101.911 40.1131 101.72 39.946C101.553 39.7788 101.469 39.5878 101.469 39.3728C101.469 38.4893 101.481 37.4028 101.505 36.1133C101.553 34.8477 101.601 33.5463 101.648 32.2091C101.696 30.8718 101.732 29.5704 101.756 28.3048C101.804 27.0153 101.827 25.9288 101.827 25.0453ZM111.319 30.4181C112.943 30.4181 114.185 30.0241 115.045 29.2361C115.904 28.4242 116.334 27.0272 116.334 25.0453C116.334 23.0633 115.904 21.6783 115.045 20.8903C114.185 20.0784 112.943 19.6724 111.319 19.6724C109.696 19.6724 108.454 20.0784 107.594 20.8903C106.735 21.6783 106.305 23.0633 106.305 25.0453C106.305 27.0272 106.735 28.4242 107.594 29.2361C108.454 30.0241 109.696 30.4181 111.319 30.4181ZM136.393 15.3741C137.611 15.3741 138.745 15.5413 139.796 15.8756C140.87 16.186 141.801 16.6159 142.589 17.1651C143.377 17.7143 143.998 18.371 144.452 19.1351C144.93 19.8993 145.168 20.735 145.168 21.6424C145.168 22.7648 144.93 23.708 144.452 24.4721C143.998 25.2124 143.377 25.8213 142.589 26.2989C141.801 26.7526 140.87 27.075 139.796 27.266C138.745 27.4571 137.611 27.5526 136.393 27.5526C135.509 27.5526 134.697 27.4929 133.957 27.3735C133.241 27.2541 132.668 27.1347 132.238 27.0153C131.999 26.9675 131.82 27.0034 131.7 27.1228C131.605 27.2183 131.581 27.3615 131.629 27.5526C131.7 27.8391 131.832 28.1496 132.023 28.4839C132.214 28.8182 132.488 29.1286 132.847 29.4152C133.205 29.7017 133.67 29.9405 134.244 30.1315C134.817 30.3226 135.533 30.4181 136.393 30.4181C137.061 30.4181 137.634 30.3703 138.112 30.2748C138.614 30.1554 139.043 30.0122 139.402 29.845C139.76 29.6778 140.07 29.4868 140.333 29.2719C140.595 29.057 140.834 28.8421 141.049 28.6272C141.384 28.2928 141.801 28.1257 142.303 28.1257C142.589 28.1257 142.864 28.1854 143.127 28.3048C143.413 28.4242 143.664 28.5913 143.879 28.8062C144.094 28.9973 144.273 29.2361 144.416 29.5226C144.559 29.7853 144.631 30.0838 144.631 30.4181C144.631 30.8718 144.452 31.3494 144.094 31.8509C143.736 32.3523 143.21 32.818 142.518 33.2478C141.825 33.6776 140.966 34.0239 139.939 34.2866C138.912 34.5731 137.73 34.7164 136.393 34.7164C134.912 34.7164 133.575 34.4776 132.381 34C131.187 33.5463 130.172 32.8896 129.336 32.03C128.501 31.1703 127.856 30.1554 127.402 28.9853C126.948 27.7914 126.722 26.478 126.722 25.0453C126.722 23.6125 126.948 22.3111 127.402 21.141C127.856 19.947 128.501 18.9202 129.336 18.0606C130.172 17.2009 131.187 16.5442 132.381 16.0905C133.575 15.6129 134.912 15.3741 136.393 15.3741ZM132.238 23.0752C132.691 23.1707 133.3 23.2901 134.064 23.4334C134.829 23.5528 135.605 23.6125 136.393 23.6125C137.563 23.6125 138.542 23.4453 139.33 23.111C140.118 22.7528 140.512 22.2633 140.512 21.6424C140.512 21.0216 140.118 20.544 139.33 20.2097C138.542 19.8515 137.563 19.6724 136.393 19.6724C135.581 19.6724 134.888 19.756 134.315 19.9231C133.742 20.0903 133.265 20.3052 132.882 20.5679C132.524 20.8067 132.25 21.0693 132.059 21.3559C131.868 21.6424 131.736 21.9171 131.665 22.1797C131.617 22.3708 131.641 22.5618 131.736 22.7528C131.856 22.92 132.023 23.0275 132.238 23.0752ZM151.623 33.1045C151.623 32.4359 151.635 31.815 151.659 31.2419C151.682 30.645 151.694 30.036 151.694 29.4152C151.718 28.7943 151.742 28.1376 151.766 27.4451C151.79 26.7287 151.802 25.9288 151.802 25.0453C151.802 24.2811 151.79 23.5767 151.766 22.9319C151.766 22.2872 151.754 21.6663 151.73 21.0693C151.706 20.4485 151.682 19.8396 151.659 19.2426C151.635 18.6456 151.623 18.0128 151.623 17.3442C151.623 16.9143 151.754 16.58 152.017 16.3412C152.303 16.0786 152.65 15.9592 153.056 15.983C153.342 16.0069 153.593 16.0308 153.808 16.0547C154.047 16.0786 154.333 16.0905 154.667 16.0905C155.479 16.0905 156.184 16.0547 156.781 15.983C157.402 15.9114 157.963 15.8278 158.464 15.7323C158.99 15.6368 159.491 15.5532 159.969 15.4816C160.446 15.4099 160.948 15.3741 161.473 15.3741C162.906 15.3741 164.207 15.6129 165.377 16.0905C166.571 16.5442 167.598 17.2009 168.458 18.0606C169.317 18.9202 169.974 19.947 170.428 21.141C170.905 22.3111 171.144 23.6125 171.144 25.0453C171.144 25.9288 171.156 26.7287 171.18 27.4451C171.204 28.1376 171.216 28.7943 171.216 29.4152C171.24 30.036 171.264 30.645 171.287 31.2419C171.311 31.815 171.323 32.4359 171.323 33.1045C171.323 33.3194 171.228 33.5105 171.037 33.6776C170.846 33.8448 170.607 33.9761 170.32 34.0716C170.034 34.1672 169.735 34.2388 169.425 34.2866C169.114 34.3343 168.852 34.3582 168.637 34.3582C168.422 34.3582 168.159 34.3343 167.849 34.2866C167.538 34.2388 167.24 34.1672 166.953 34.0716C166.667 33.9761 166.428 33.8448 166.237 33.6776C166.046 33.5105 165.95 33.3194 165.95 33.1045C165.95 32.4359 165.962 31.815 165.986 31.2419C166.01 30.645 166.022 30.036 166.022 29.4152C166.046 28.7943 166.07 28.1376 166.094 27.4451C166.118 26.7287 166.129 25.9288 166.129 25.0453C166.129 23.0633 165.759 21.6783 165.019 20.8903C164.279 20.0784 163.097 19.6724 161.473 19.6724C159.849 19.6724 158.667 20.0784 157.927 20.8903C157.187 21.6783 156.817 23.0633 156.817 25.0453C156.817 25.9288 156.828 26.7287 156.852 27.4451C156.876 28.1376 156.888 28.7943 156.888 29.4152C156.912 30.036 156.936 30.645 156.96 31.2419C156.984 31.815 156.996 32.4359 156.996 33.1045C156.996 33.3194 156.9 33.5105 156.709 33.6776C156.518 33.8448 156.279 33.9761 155.993 34.0716C155.706 34.1672 155.408 34.2388 155.097 34.2866C154.787 34.3343 154.524 34.3582 154.309 34.3582C154.094 34.3582 153.832 34.3343 153.521 34.2866C153.211 34.2388 152.912 34.1672 152.626 34.0716C152.339 33.9761 152.1 33.8448 151.909 33.6776C151.718 33.5105 151.623 33.3194 151.623 33.1045ZM188.683 15.3741C189.232 15.3741 189.686 15.4099 190.044 15.4816C190.426 15.5532 190.796 15.6368 191.154 15.7323C191.536 15.8278 191.942 15.9114 192.372 15.983C192.826 16.0547 193.387 16.0905 194.056 16.0905C194.39 16.0905 194.665 16.0786 194.88 16.0547C195.118 16.0308 195.381 16.0069 195.668 15.983C196.097 15.9353 196.444 16.0427 196.706 16.3054C196.969 16.5681 197.088 16.9143 197.064 17.3442C197.041 18.0128 197.005 18.6456 196.957 19.2426C196.933 19.8396 196.897 20.4485 196.85 21.0693C196.826 21.6663 196.802 22.2872 196.778 22.9319C196.754 23.5767 196.742 24.2811 196.742 25.0453C196.742 25.9288 196.754 26.7287 196.778 27.4451C196.826 28.1376 196.873 28.7943 196.921 29.4152C196.969 30.036 197.005 30.645 197.029 31.2419C197.076 31.815 197.1 32.4359 197.1 33.1045C197.1 33.3194 197.005 33.5105 196.814 33.6776C196.623 33.8448 196.384 33.9761 196.097 34.0716C195.811 34.1672 195.512 34.2388 195.202 34.2866C194.891 34.3343 194.629 34.3582 194.414 34.3582C194.199 34.3582 193.936 34.3343 193.626 34.2866C193.315 34.2388 193.017 34.1672 192.73 34.0716C192.444 33.9761 192.205 33.8448 192.014 33.6776C191.823 33.5105 191.727 33.3194 191.727 33.1045C191.727 32.4359 191.739 31.815 191.763 31.2419C191.787 30.645 191.799 30.036 191.799 29.4152C191.823 28.7943 191.847 28.1376 191.871 27.4451C191.895 26.7287 191.907 25.9288 191.907 25.0453C191.907 24.0662 191.883 23.2424 191.835 22.5737C191.811 21.8812 191.692 21.3201 191.477 20.8903C191.286 20.4604 190.975 20.15 190.545 19.959C190.116 19.7679 189.495 19.6724 188.683 19.6724C187.728 19.6724 186.916 19.9231 186.247 20.4246C185.579 20.9261 185.029 21.5708 184.599 22.3588C184.17 23.1468 183.823 24.0423 183.561 25.0453C183.322 26.0482 183.143 27.0511 183.023 28.054C182.904 29.0331 182.832 29.9763 182.809 30.8837C182.785 31.7673 182.773 32.5075 182.773 33.1045C182.773 33.3194 182.677 33.5105 182.486 33.6776C182.295 33.8448 182.056 33.9761 181.77 34.0716C181.483 34.1672 181.185 34.2388 180.874 34.2866C180.564 34.3343 180.301 34.3582 180.086 34.3582C179.871 34.3582 179.609 34.3343 179.298 34.2866C178.988 34.2388 178.689 34.1672 178.403 34.0716C178.116 33.9761 177.877 33.8448 177.686 33.6776C177.495 33.5105 177.4 33.3194 177.4 33.1045C177.4 32.0538 177.46 30.8957 177.579 29.6301C177.698 28.3406 177.913 27.0392 178.224 25.7258C178.534 24.4125 178.952 23.1349 179.477 21.8932C180.027 20.6515 180.719 19.553 181.555 18.5978C182.391 17.6188 183.394 16.8427 184.564 16.2696C185.734 15.6726 187.107 15.3741 188.683 15.3741ZM213.215 15.3741C214.433 15.3741 215.567 15.5413 216.617 15.8756C217.692 16.186 218.623 16.6159 219.411 17.1651C220.199 17.7143 220.82 18.371 221.274 19.1351C221.752 19.8993 221.99 20.735 221.99 21.6424C221.99 22.7648 221.752 23.708 221.274 24.4721C220.82 25.2124 220.199 25.8213 219.411 26.2989C218.623 26.7526 217.692 27.075 216.617 27.266C215.567 27.4571 214.433 27.5526 213.215 27.5526C212.331 27.5526 211.519 27.4929 210.779 27.3735C210.063 27.2541 209.489 27.1347 209.06 27.0153C208.821 26.9675 208.642 27.0034 208.522 27.1228C208.427 27.2183 208.403 27.3615 208.451 27.5526C208.522 27.8391 208.654 28.1496 208.845 28.4839C209.036 28.8182 209.31 29.1286 209.669 29.4152C210.027 29.7017 210.492 29.9405 211.066 30.1315C211.639 30.3226 212.355 30.4181 213.215 30.4181C213.883 30.4181 214.456 30.3703 214.934 30.2748C215.435 30.1554 215.865 30.0122 216.223 29.845C216.582 29.6778 216.892 29.4868 217.155 29.2719C217.417 29.057 217.656 28.8421 217.871 28.6272C218.205 28.2928 218.623 28.1257 219.125 28.1257C219.411 28.1257 219.686 28.1854 219.949 28.3048C220.235 28.4242 220.486 28.5913 220.701 28.8062C220.916 28.9973 221.095 29.2361 221.238 29.5226C221.381 29.7853 221.453 30.0838 221.453 30.4181C221.453 30.8718 221.274 31.3494 220.916 31.8509C220.558 32.3523 220.032 32.818 219.34 33.2478C218.647 33.6776 217.788 34.0239 216.761 34.2866C215.734 34.5731 214.552 34.7164 213.215 34.7164C211.734 34.7164 210.397 34.4776 209.203 34C208.009 33.5463 206.994 32.8896 206.158 32.03C205.323 31.1703 204.678 30.1554 204.224 28.9853C203.77 27.7914 203.544 26.478 203.544 25.0453C203.544 23.6125 203.77 22.3111 204.224 21.141C204.678 19.947 205.323 18.9202 206.158 18.0606C206.994 17.2009 208.009 16.5442 209.203 16.0905C210.397 15.6129 211.734 15.3741 213.215 15.3741ZM209.06 23.0752C209.513 23.1707 210.122 23.2901 210.886 23.4334C211.651 23.5528 212.427 23.6125 213.215 23.6125C214.385 23.6125 215.364 23.4453 216.152 23.111C216.94 22.7528 217.334 22.2633 217.334 21.6424C217.334 21.0216 216.94 20.544 216.152 20.2097C215.364 19.8515 214.385 19.6724 213.215 19.6724C212.403 19.6724 211.71 19.756 211.137 19.9231C210.564 20.0903 210.086 20.3052 209.704 20.5679C209.346 20.8067 209.072 21.0693 208.881 21.3559C208.69 21.6424 208.558 21.9171 208.487 22.1797C208.439 22.3708 208.463 22.5618 208.558 22.7528C208.678 22.92 208.845 23.0275 209.06 23.0752ZM216.438 8.21033C217.25 8.21033 217.871 8.44912 218.301 8.92671C218.731 9.4043 218.946 10.0013 218.946 10.7177C218.946 11.434 218.731 12.031 218.301 12.5086C217.871 12.9862 217.25 13.225 216.438 13.225C215.626 13.225 215.006 12.9862 214.576 12.5086C214.146 12.031 213.931 11.434 213.931 10.7177C213.931 10.0013 214.146 9.4043 214.576 8.92671C215.006 8.44912 215.626 8.21033 216.438 8.21033ZM209.275 8.21033C210.086 8.21033 210.707 8.44912 211.137 8.92671C211.567 9.4043 211.782 10.0013 211.782 10.7177C211.782 11.434 211.567 12.031 211.137 12.5086C210.707 12.9862 210.086 13.225 209.275 13.225C208.463 13.225 207.842 12.9862 207.412 12.5086C206.982 12.031 206.767 11.434 206.767 10.7177C206.767 10.0013 206.982 9.4043 207.412 8.92671C207.842 8.44912 208.463 8.21033 209.275 8.21033ZM228.445 17.3442C228.445 16.9143 228.576 16.58 228.839 16.3412C229.125 16.0786 229.472 15.9592 229.877 15.983C230.164 16.0069 230.415 16.0308 230.63 16.0547C230.868 16.0786 231.155 16.0905 231.489 16.0905C232.301 16.0905 232.958 16.0547 233.459 15.983C233.985 15.9114 234.45 15.8278 234.856 15.7323C235.262 15.6368 235.656 15.5532 236.038 15.4816C236.42 15.4099 236.874 15.3741 237.399 15.3741C238.211 15.3741 238.928 15.4577 239.549 15.6249C240.169 15.792 240.707 15.995 241.16 16.2338C241.638 16.4726 242.044 16.7233 242.378 16.986C242.713 17.2487 242.987 17.4755 243.202 17.6665C243.56 17.977 243.871 17.977 244.133 17.6665C244.324 17.4516 244.575 17.2128 244.886 16.9502C245.22 16.6875 245.626 16.4368 246.103 16.198C246.581 15.9592 247.13 15.7681 247.751 15.6249C248.396 15.4577 249.124 15.3741 249.936 15.3741C251.369 15.3741 252.634 15.6129 253.733 16.0905C254.831 16.5442 255.739 17.2009 256.455 18.0606C257.195 18.9202 257.757 19.947 258.139 21.141C258.521 22.3111 258.712 23.6125 258.712 25.0453C258.712 25.9288 258.724 26.7287 258.748 27.4451C258.771 28.1376 258.783 28.7943 258.783 29.4152C258.807 30.036 258.831 30.645 258.855 31.2419C258.879 31.815 258.891 32.4359 258.891 33.1045C258.891 33.3194 258.795 33.5105 258.604 33.6776C258.413 33.8448 258.174 33.9761 257.888 34.0716C257.601 34.1672 257.303 34.2388 256.992 34.2866C256.682 34.3343 256.419 34.3582 256.204 34.3582C255.99 34.3582 255.727 34.3343 255.416 34.2866C255.106 34.2388 254.808 34.1672 254.521 34.0716C254.234 33.9761 253.996 33.8448 253.805 33.6776C253.614 33.5105 253.518 33.3194 253.518 33.1045C253.518 32.4359 253.53 31.815 253.554 31.2419C253.578 30.645 253.59 30.036 253.59 29.4152C253.614 28.7943 253.637 28.1376 253.661 27.4451C253.685 26.7287 253.697 25.9288 253.697 25.0453C253.697 24.0662 253.649 23.2424 253.554 22.5737C253.482 21.8812 253.303 21.3201 253.017 20.8903C252.754 20.4604 252.372 20.15 251.87 19.959C251.393 19.7679 250.748 19.6724 249.936 19.6724C249.124 19.6724 248.468 19.7679 247.966 19.959C247.488 20.15 247.118 20.4604 246.856 20.8903C246.593 21.3201 246.414 21.8812 246.318 22.5737C246.223 23.2424 246.175 24.0662 246.175 25.0453C246.175 25.9288 246.187 26.7287 246.211 27.4451C246.235 28.1376 246.247 28.7943 246.247 29.4152C246.271 30.036 246.295 30.645 246.318 31.2419C246.342 31.815 246.354 32.4359 246.354 33.1045C246.354 33.3194 246.259 33.5105 246.068 33.6776C245.877 33.8448 245.638 33.9761 245.351 34.0716C245.065 34.1672 244.766 34.2388 244.456 34.2866C244.145 34.3343 243.883 34.3582 243.668 34.3582C243.453 34.3582 243.19 34.3343 242.88 34.2866C242.569 34.2388 242.271 34.1672 241.984 34.0716C241.698 33.9761 241.459 33.8448 241.268 33.6776C241.077 33.5105 240.981 33.3194 240.981 33.1045C240.981 32.4359 240.993 31.815 241.017 31.2419C241.041 30.645 241.053 30.036 241.053 29.4152C241.077 28.7943 241.101 28.1376 241.125 27.4451C241.149 26.7287 241.16 25.9288 241.16 25.0453C241.16 24.0662 241.113 23.2424 241.017 22.5737C240.946 21.8812 240.766 21.3201 240.48 20.8903C240.217 20.4604 239.835 20.15 239.334 19.959C238.856 19.7679 238.211 19.6724 237.399 19.6724C236.588 19.6724 235.931 19.7679 235.429 19.959C234.952 20.15 234.582 20.4604 234.319 20.8903C234.056 21.3201 233.877 21.8812 233.782 22.5737C233.686 23.2424 233.638 24.0662 233.638 25.0453C233.638 25.9288 233.65 26.7287 233.674 27.4451C233.698 28.1376 233.71 28.7943 233.71 29.4152C233.734 30.036 233.758 30.645 233.782 31.2419C233.806 31.815 233.818 32.4359 233.818 33.1045C233.818 33.3194 233.722 33.5105 233.531 33.6776C233.34 33.8448 233.101 33.9761 232.815 34.0716C232.528 34.1672 232.23 34.2388 231.919 34.2866C231.609 34.3343 231.346 34.3582 231.131 34.3582C230.916 34.3582 230.654 34.3343 230.343 34.2866C230.033 34.2388 229.734 34.1672 229.448 34.0716C229.161 33.9761 228.922 33.8448 228.731 33.6776C228.54 33.5105 228.445 33.3194 228.445 33.1045C228.445 32.4359 228.457 31.815 228.481 31.2419C228.504 30.645 228.516 30.036 228.516 29.4152C228.54 28.7943 228.564 28.1376 228.588 27.4451C228.612 26.7287 228.624 25.9288 228.624 25.0453C228.624 24.2811 228.612 23.5767 228.588 22.9319C228.588 22.2872 228.576 21.6663 228.552 21.0693C228.528 20.4485 228.504 19.8396 228.481 19.2426C228.457 18.6456 228.445 18.0128 228.445 17.3442Z" fill="#8F121E"/>
<path d="M35.4123 6.36053C35.2525 6.25185 35.069 6.18303 34.8771 6.15983C34.6853 6.13662 34.4906 6.15971 34.3095 6.22716L16.7205 12.9385C15.9547 13.23 14.9977 13.3717 14.0145 13.3717C12.6437 13.3744 11.2233 13.0939 10.2374 12.7117C9.938 12.6028 9.65051 12.4637 9.3794 12.2964C9.4564 12.2625 9.54532 12.2281 9.64615 12.1933L25.6415 6.09103L28.0244 6.99028V4.36128C28.0244 4.16842 27.9777 3.97842 27.8884 3.80747C27.7991 3.63653 27.6698 3.48971 27.5115 3.37953C27.3517 3.27085 27.1682 3.20203 26.9764 3.17883C26.7845 3.15562 26.5899 3.17871 26.4088 3.24616L8.82115 9.95478C8.27665 10.1514 7.81328 10.3852 7.41865 10.7317C7.02815 11.0672 6.69403 11.6185 6.69953 12.2304C6.69953 12.2483 6.70503 12.2744 6.70503 12.2744V35.9052L6.7009 35.9327C6.7009 35.9423 6.70503 35.9464 6.70503 35.956V35.9794H6.70778C6.74628 36.8044 7.21653 37.331 7.67028 37.705C9.09065 38.8092 11.4763 39.4265 14.0132 39.4568C15.2163 39.4568 16.4359 39.2973 17.5662 38.8697L35.1607 32.1569C35.3871 32.072 35.582 31.9197 35.7192 31.7205C35.8564 31.5214 35.9292 31.285 35.9279 31.0432V7.34503C35.9277 7.15205 35.8809 6.96197 35.7913 6.79101C35.7018 6.62006 35.5722 6.47331 35.4137 6.36328L35.4123 6.36053ZM7.79953 16.1368C7.85113 16.2561 7.88361 16.3828 7.89578 16.5122L7.8999 16.585C7.9219 16.948 8.07865 17.1433 8.39903 17.4238C9.47565 18.2859 11.6743 18.9088 14.0132 18.928C14.9115 18.9353 15.8062 18.813 16.6697 18.565V21.0263C15.78 21.2243 14.8822 21.3109 13.9994 21.3109C11.6977 21.2752 9.50865 20.8255 7.79815 19.863L7.79953 16.1368ZM14.0008 33.8083C11.6977 33.7698 9.50865 33.3215 7.79953 32.3577V28.6273C7.85405 28.747 7.88665 28.8755 7.89578 29.0068L7.8999 29.0797C7.92465 29.4454 8.07865 29.6393 8.4004 29.9212C9.47565 30.7805 11.6729 31.4062 14.0132 31.4199C14.9344 31.4199 15.8378 31.3099 16.6697 31.0624V33.5209C15.7921 33.7129 14.8963 33.8088 13.998 33.8069L14.0008 33.8083Z" fill="#8F121E"/>
</svg>
