<svg width="44" height="44" viewBox="0 0 44 44" fill="none" xmlns="http://www.w3.org/2000/svg">
<path d="M35.4123 6.36038C35.2525 6.2517 35.069 6.18288 34.8771 6.15968C34.6853 6.13647 34.4906 6.15956 34.3095 6.22701L16.7205 12.9384C15.9547 13.2299 14.9977 13.3715 14.0145 13.3715C12.6437 13.3743 11.2233 13.0938 10.2374 12.7115C9.938 12.6027 9.65051 12.4635 9.3794 12.2963C9.4564 12.2623 9.54532 12.228 9.64615 12.1931L25.6415 6.09088L28.0244 6.99013V4.36113C28.0244 4.16827 27.9777 3.97826 27.8884 3.80732C27.7991 3.63638 27.6698 3.48956 27.5115 3.37938C27.3517 3.2707 27.1682 3.20188 26.9764 3.17868C26.7845 3.15547 26.5899 3.17856 26.4088 3.24601L8.82115 9.95463C8.27665 10.1513 7.81328 10.385 7.41865 10.7315C7.02815 11.067 6.69403 11.6184 6.69953 12.2303C6.69953 12.2481 6.70503 12.2743 6.70503 12.2743V35.905L6.7009 35.9325C6.7009 35.9421 6.70503 35.9463 6.70503 35.9559V35.9793H6.70778C6.74628 36.8042 7.21653 37.3309 7.67028 37.7049C9.09065 38.809 11.4763 39.4264 14.0132 39.4566C15.2163 39.4566 16.4359 39.2971 17.5662 38.8695L35.1607 32.1567C35.3871 32.0718 35.582 31.9195 35.7192 31.7204C35.8564 31.5212 35.9292 31.2848 35.9279 31.043V7.34488C35.9277 7.15189 35.8809 6.96181 35.7913 6.79086C35.7018 6.61991 35.5722 6.47315 35.4137 6.36313L35.4123 6.36038ZM7.79953 16.1366C7.85113 16.2559 7.88361 16.3826 7.89578 16.512L7.8999 16.5849C7.9219 16.9479 8.07865 17.1431 8.39903 17.4236C9.47565 18.2858 11.6743 18.9086 14.0132 18.9279C14.9115 18.9351 15.8062 18.8129 16.6697 18.5649V21.0261C15.78 21.2241 14.8822 21.3108 13.9994 21.3108C11.6977 21.275 9.50865 20.8254 7.79815 19.8629L7.79953 16.1366ZM14.0008 33.8081C11.6977 33.7696 9.50865 33.3214 7.79953 32.3575V28.6271C7.85405 28.7469 7.88665 28.8754 7.89578 29.0066L7.8999 29.0795C7.92465 29.4453 8.07865 29.6391 8.4004 29.921C9.47565 30.7804 11.6729 31.406 14.0132 31.4198C14.9344 31.4198 15.8378 31.3098 16.6697 31.0623V33.5208C15.7921 33.7128 14.8963 33.8087 13.998 33.8068L14.0008 33.8081Z" fill="#302F2B"/>
</svg>
