<svg width="28" height="28" viewBox="0 0 28 28" fill="none" xmlns="http://www.w3.org/2000/svg">
<path fill-rule="evenodd" clip-rule="evenodd" d="M20.1249 12.25C20.1249 13.2842 19.9213 14.3082 19.5255 15.2636C19.1297 16.2191 18.5497 17.0872 17.8184 17.8185C17.0871 18.5497 16.219 19.1298 15.2636 19.5256C14.3081 19.9213 13.2841 20.125 12.2499 20.125C11.2158 20.125 10.1917 19.9213 9.23631 19.5256C8.28087 19.1298 7.41274 18.5497 6.68148 17.8185C5.95021 17.0872 5.37015 16.2191 4.97439 15.2636C4.57864 14.3082 4.37494 13.2842 4.37494 12.25C4.37494 10.1614 5.20463 8.15839 6.68148 6.68154C8.15833 5.20469 10.1614 4.375 12.2499 4.375C14.3385 4.375 16.3416 5.20469 17.8184 6.68154C19.2953 8.15839 20.1249 10.1614 20.1249 12.25ZM18.6899 20.545C16.5801 22.183 13.9253 22.9553 11.2661 22.7048C8.60685 22.4542 6.14305 21.1996 4.37625 19.1964C2.60946 17.1933 1.67251 14.592 1.75613 11.9223C1.83975 9.25261 2.93766 6.71512 4.82636 4.82642C6.71506 2.93773 9.25255 1.83981 11.9223 1.75619C14.592 1.67257 17.1932 2.60952 19.1964 4.37632C21.1996 6.14311 22.4542 8.60691 22.7047 11.2662C22.9552 13.9254 22.1829 16.5802 20.5449 18.69L25.4274 23.5725C25.5564 23.6927 25.6598 23.8376 25.7316 23.9986C25.8033 24.1596 25.8419 24.3334 25.845 24.5096C25.8481 24.6858 25.8157 24.8609 25.7497 25.0243C25.6836 25.1877 25.5854 25.3362 25.4608 25.4608C25.3361 25.5855 25.1877 25.6837 25.0242 25.7497C24.8608 25.8157 24.6858 25.8482 24.5095 25.845C24.3333 25.8419 24.1595 25.8034 23.9985 25.7316C23.8375 25.6599 23.6926 25.5565 23.5724 25.4275L18.6899 20.545Z" fill="black"/>
</svg>
