<svg width="24" height="24" viewBox="0 0 24 24" fill="none" xmlns="http://www.w3.org/2000/svg">
<path fill-rule="evenodd" clip-rule="evenodd" d="M4.125 3C3.82663 3 3.54048 3.11853 3.3295 3.3295C3.11853 3.54048 3 3.82663 3 4.125C3 4.42337 3.11853 4.70952 3.3295 4.9205C3.54048 5.13147 3.82663 5.25 4.125 5.25H19.875C20.1734 5.25 20.4595 5.13147 20.6705 4.9205C20.8815 4.70952 21 4.42337 21 4.125C21 3.82663 20.8815 3.54048 20.6705 3.3295C20.4595 3.11853 20.1734 3 19.875 3H4.125ZM3 9.375C3 9.07663 3.11853 8.79048 3.3295 8.5795C3.54048 8.36853 3.82663 8.25 4.125 8.25H19.875C20.1734 8.25 20.4595 8.36853 20.6705 8.5795C20.8815 8.79048 21 9.07663 21 9.375C21 9.67337 20.8815 9.95952 20.6705 10.1705C20.4595 10.3815 20.1734 10.5 19.875 10.5H4.125C3.82663 10.5 3.54048 10.3815 3.3295 10.1705C3.11853 9.95952 3 9.67337 3 9.375ZM4.125 13.5C3.82663 13.5 3.54048 13.6185 3.3295 13.8295C3.11853 14.0405 3 14.3266 3 14.625C3 14.9234 3.11853 15.2095 3.3295 15.4205C3.54048 15.6315 3.82663 15.75 4.125 15.75H19.875C20.1734 15.75 20.4595 15.6315 20.6705 15.4205C20.8815 15.2095 21 14.9234 21 14.625C21 14.3266 20.8815 14.0405 20.6705 13.8295C20.4595 13.6185 20.1734 13.5 19.875 13.5H4.125ZM4.125 18.75C3.82663 18.75 3.54048 18.8685 3.3295 19.0795C3.11853 19.2905 3 19.5766 3 19.875C3 20.1734 3.11853 20.4595 3.3295 20.6705C3.54048 20.8815 3.82663 21 4.125 21H19.875C20.1734 21 20.4595 20.8815 20.6705 20.6705C20.8815 20.4595 21 20.1734 21 19.875C21 19.5766 20.8815 19.2905 20.6705 19.0795C20.4595 18.8685 20.1734 18.75 19.875 18.75H4.125Z" fill="#302F2B"/>
</svg>
