<svg width="32" height="32" viewBox="0 0 32 32" fill="none" xmlns="http://www.w3.org/2000/svg">
<path fill-rule="evenodd" clip-rule="evenodd" d="M12.6 4L7.8 1L4 4V31L7 29.448L9.8 28L14.6 31L19.4 28L24.2 31L28 28V1L25 2.552L22.2 4L17.4 1L12.6 4ZM17.4 4.538L14.19 6.544L12.6 7.538L11.01 6.544L8.002 4.664L7 5.454V26.07L8.42 25.336L9.94 24.55L11.39 25.456L14.6 27.462L17.81 25.456L19.4 24.462L20.99 25.456L23.998 27.336L25 26.546V5.93L23.58 6.664L22.06 7.45L20.61 6.544L17.4 4.538ZM10 13C10 12.6022 10.158 12.2206 10.4393 11.9393C10.7206 11.658 11.1022 11.5 11.5 11.5H20.5C20.8978 11.5 21.2794 11.658 21.5607 11.9393C21.842 12.2206 22 12.6022 22 13C22 13.3978 21.842 13.7794 21.5607 14.0607C21.2794 14.342 20.8978 14.5 20.5 14.5H11.5C11.1022 14.5 10.7206 14.342 10.4393 14.0607C10.158 13.7794 10 13.3978 10 13ZM11.5 17.5C11.1022 17.5 10.7206 17.658 10.4393 17.9393C10.158 18.2206 10 18.6022 10 19C10 19.3978 10.158 19.7794 10.4393 20.0607C10.7206 20.342 11.1022 20.5 11.5 20.5H16.5C16.8978 20.5 17.2794 20.342 17.5607 20.0607C17.842 19.7794 18 19.3978 18 19C18 18.6022 17.842 18.2206 17.5607 17.9393C17.2794 17.658 16.8978 17.5 16.5 17.5H11.5Z" fill="#302F2B"/>
</svg>
