<svg width="26" height="26" viewBox="0 0 26 26" fill="none" xmlns="http://www.w3.org/2000/svg">
<path fill-rule="evenodd" clip-rule="evenodd" d="M18.5626 1.625C20.1042 1.625 21.5827 2.2374 22.6727 3.32748C23.7628 4.41756 24.3752 5.89602 24.3752 7.43763C24.3752 7.87638 24.1997 8.29887 23.8877 8.61087L23.0297 9.4705L19.8268 12.6734L11.606 20.8942C10.9253 21.5746 10.0585 22.0382 9.11484 22.2268L4.82809 23.0848C4.56568 23.1373 4.29435 23.1243 4.03819 23.0468C3.78203 22.9693 3.54898 22.8297 3.35974 22.6405C3.1705 22.4512 3.03093 22.2182 2.95342 21.962C2.87592 21.7059 2.86288 21.4345 2.91547 21.1721L3.77347 16.8854C3.96202 15.9417 4.42566 15.0749 5.10597 14.3942L13.3268 6.17338L17.3893 2.11088C17.6997 1.8005 18.1222 1.625 18.5626 1.625ZM14.8088 8.13962L6.83009 16.1184C6.49008 16.4585 6.25827 16.8916 6.16384 17.3631L5.54634 20.4555L8.63709 19.838C9.10923 19.7439 9.54292 19.512 9.88347 19.1718L17.8622 11.193C17.7897 10.4072 17.4445 9.67164 16.8865 9.11367C16.3286 8.5557 15.593 8.21053 14.8072 8.138M19.8415 9.20725C19.2507 7.83762 18.159 6.74538 16.7897 6.15387L18.8697 4.07387C20.4866 4.22012 21.7752 5.51038 21.9215 7.12888L19.8415 9.20725Z" fill="#FCFBF9"/>
</svg>
