<svg width="24" height="24" viewBox="0 0 24 24" fill="none" xmlns="http://www.w3.org/2000/svg">
<path fill-rule="evenodd" clip-rule="evenodd" d="M9.2535 9.4965C8.60065 10.1494 8.16443 10.9873 8.004 11.8965L7.497 14.7645C7.45494 15.0021 7.47082 15.2464 7.54331 15.4765C7.6158 15.7067 7.74274 15.916 7.91338 16.0866C8.08401 16.2573 8.29329 16.3842 8.52346 16.4567C8.75362 16.5292 8.99788 16.5451 9.2355 16.503L12.1035 15.996C13.0127 15.8356 13.8506 15.3993 14.5035 14.7465L19.1085 10.1415L22.1085 7.1415C22.3583 6.88968 22.4989 6.54968 22.5 6.195C22.5 4.94981 22.0054 3.75562 21.1249 2.87513C20.2444 1.99465 19.0502 1.5 17.805 1.5C17.4496 1.5011 17.1089 1.64232 16.857 1.893L13.857 4.893L9.2535 9.4965ZM15.1575 6.7755L10.8435 11.088C10.5174 11.4145 10.2995 11.8335 10.2195 12.288L9.9 14.1L11.712 13.7805L11.7975 13.7655C12.2198 13.6737 12.6067 13.4623 12.912 13.1565L17.2245 8.8425C17.1486 8.32129 16.9064 7.83853 16.5339 7.46609C16.1615 7.09364 15.6787 6.85143 15.1575 6.7755ZM18.9945 7.074C18.5423 6.18187 17.8178 5.45687 16.926 5.004L18.156 3.774C18.6782 3.84949 19.162 4.09188 19.535 4.46497C19.9081 4.83805 20.1505 5.32181 20.226 5.844L18.9945 7.074ZM12 3.375C12 3.07663 11.8815 2.79048 11.6705 2.5795C11.4595 2.36853 11.1734 2.25 10.875 2.25H6.75C5.55653 2.25 4.41193 2.72411 3.56802 3.56802C2.72411 4.41193 2.25 5.55653 2.25 6.75V17.25C2.25 18.4435 2.72411 19.5881 3.56802 20.432C4.41193 21.2759 5.55653 21.75 6.75 21.75H17.25C18.4435 21.75 19.5881 21.2759 20.432 20.432C21.2759 19.5881 21.75 18.4435 21.75 17.25V13.125C21.75 12.8266 21.6315 12.5405 21.4205 12.3295C21.2095 12.1185 20.9234 12 20.625 12C20.3266 12 20.0405 12.1185 19.8295 12.3295C19.6185 12.5405 19.5 12.8266 19.5 13.125V17.25C19.5 17.8467 19.2629 18.419 18.841 18.841C18.419 19.2629 17.8467 19.5 17.25 19.5H6.75C6.15326 19.5 5.58097 19.2629 5.15901 18.841C4.73705 18.419 4.5 17.8467 4.5 17.25V6.75C4.5 6.15326 4.73705 5.58097 5.15901 5.15901C5.58097 4.73705 6.15326 4.5 6.75 4.5H10.875C11.1734 4.5 11.4595 4.38147 11.6705 4.1705C11.8815 3.95952 12 3.67337 12 3.375Z" fill="#908F8B"/>
</svg>
