<svg width="362" height="51" viewBox="0 0 362 51" fill="none" xmlns="http://www.w3.org/2000/svg">
<path d="M-0.000110394 38.5458C-0.000110394 37.5105 0.0183769 36.5492 0.0553514 35.6618C0.0923258 34.7375 0.110813 33.7946 0.110813 32.8333C0.147787 31.8719 0.184762 30.8551 0.221736 29.7829C0.258711 28.6737 0.277198 27.435 0.277198 26.067C0.277198 24.8838 0.258711 23.793 0.221736 22.7947C0.221736 21.7964 0.203249 20.8351 0.166275 19.9107C0.1293 18.9494 0.0923258 18.0065 0.0553514 17.0822C0.0183769 16.1578 -0.000110394 15.178 -0.000110394 14.1427C-0.000110394 13.4772 0.203249 12.9595 0.609968 12.5898C1.05366 12.1831 1.58979 11.9982 2.21836 12.0352C2.66205 12.0721 3.05028 12.1091 3.38305 12.1461C3.7528 12.1831 4.19649 12.2015 4.71413 12.2015C5.97126 12.2015 7.06201 12.1461 7.98637 12.0352C8.9477 11.9242 9.8166 11.7948 10.5931 11.6469C11.4065 11.499 12.183 11.3696 12.9225 11.2587C13.6619 11.1478 14.4384 11.0923 15.2518 11.0923C17.4703 11.0923 19.4854 11.4621 21.2972 12.2015C23.1459 12.9041 24.7358 13.9209 26.0669 15.2519C27.398 16.583 28.4147 18.1729 29.1173 20.0216C29.8568 21.8334 30.2265 23.8485 30.2265 26.067C30.2265 27.435 30.245 28.6737 30.282 29.7829C30.3189 30.8551 30.3374 31.8719 30.3374 32.8333C30.3744 33.7946 30.4114 34.7375 30.4483 35.6618C30.4853 36.5492 30.5038 37.5105 30.5038 38.5458C30.5038 38.8786 30.3559 39.1744 30.0601 39.4332C29.7643 39.692 29.3946 39.8954 28.9509 40.0433C28.5072 40.1912 28.045 40.3021 27.5643 40.3761C27.0837 40.45 26.6769 40.487 26.3442 40.487C26.0114 40.487 25.6047 40.45 25.124 40.3761C24.6434 40.3021 24.1812 40.1912 23.7375 40.0433C23.2938 39.8954 22.924 39.692 22.6282 39.4332C22.3325 39.1744 22.1846 38.8786 22.1846 38.5458C22.1846 37.5105 22.203 36.5492 22.24 35.6618C22.277 34.7375 22.2955 33.7946 22.2955 32.8333C22.3325 31.8719 22.3694 30.8551 22.4064 29.7829C22.4434 28.6737 22.4619 27.435 22.4619 26.067C22.4619 22.9981 21.8888 20.8536 20.7426 19.6334C19.5963 18.3763 17.7661 17.7477 15.2518 17.7477C12.7376 17.7477 10.9073 18.3763 9.76114 19.6334C8.61493 20.8536 8.04183 22.9981 8.04183 26.067C8.04183 27.435 8.06032 28.6737 8.09729 29.7829C8.13427 30.8551 8.15275 31.8719 8.15275 32.8333C8.18973 33.7946 8.2267 34.7375 8.26368 35.6618C8.30065 36.5492 8.31914 37.5105 8.31914 38.5458C8.31914 38.8786 8.17124 39.1744 7.87545 39.4332C7.57965 39.692 7.20991 39.8954 6.76621 40.0433C6.32252 40.1912 5.86034 40.3021 5.37967 40.3761C4.899 40.45 4.49228 40.487 4.15951 40.487C3.82674 40.487 3.42003 40.45 2.93936 40.3761C2.45869 40.3021 1.99651 40.1912 1.55282 40.0433C1.10912 39.8954 0.739378 39.692 0.443583 39.4332C0.147787 39.1744 -0.000110394 38.8786 -0.000110394 38.5458ZM54.8874 11.0923C56.7731 11.0923 58.5294 11.3511 60.1563 11.8688C61.8201 12.3494 63.2621 13.015 64.4823 13.8654C65.7025 14.7158 66.6638 15.7326 67.3663 16.9158C68.1058 18.099 68.4755 19.3931 68.4755 20.7981C68.4755 22.5359 68.1058 23.9964 67.3663 25.1796C66.6638 26.3258 65.7025 27.2686 64.4823 28.0081C63.2621 28.7106 61.8201 29.2098 60.1563 29.5056C58.5294 29.8014 56.7731 29.9493 54.8874 29.9493C53.5194 29.9493 52.2622 29.8568 51.116 29.672C50.0068 29.4871 49.1194 29.3022 48.4539 29.1173C48.0841 29.0434 47.8068 29.0989 47.622 29.2837C47.4741 29.4316 47.4371 29.6535 47.511 29.9493C47.622 30.393 47.8253 30.8736 48.1211 31.3913C48.4169 31.9089 48.8421 32.3896 49.3967 32.8333C49.9513 33.277 50.6723 33.6467 51.5597 33.9425C52.4471 34.2383 53.5564 34.3862 54.8874 34.3862C55.9227 34.3862 56.8101 34.3123 57.5496 34.1644C58.3261 33.9795 58.9916 33.7576 59.5462 33.4988C60.1008 33.24 60.5815 32.9442 60.9882 32.6114C61.3949 32.2787 61.7647 31.9459 62.0974 31.6131C62.6151 31.0955 63.2621 30.8367 64.0386 30.8367C64.4823 30.8367 64.9075 30.9291 65.3142 31.114C65.7579 31.2988 66.1461 31.5577 66.4789 31.8904C66.8117 32.1862 67.089 32.556 67.3108 32.9997C67.5327 33.4064 67.6436 33.8686 67.6436 34.3862C67.6436 35.0887 67.3663 35.8282 66.8117 36.6047C66.2571 37.3811 65.4436 38.1021 64.3714 38.7677C63.2991 39.4332 61.968 39.9693 60.3781 40.3761C58.7882 40.8198 56.958 41.0416 54.8874 41.0416C52.595 41.0416 50.5244 40.6719 48.6757 39.9324C46.827 39.2299 45.2556 38.2131 43.9615 36.882C42.6674 35.5509 41.6691 33.9795 40.9666 32.1677C40.264 30.319 39.9128 28.2854 39.9128 26.067C39.9128 23.8485 40.264 21.8334 40.9666 20.0216C41.6691 18.1729 42.6674 16.583 43.9615 15.2519C45.2556 13.9209 46.827 12.9041 48.6757 12.2015C50.5244 11.4621 52.595 11.0923 54.8874 11.0923ZM48.4539 23.0166C49.1564 23.1645 50.0992 23.3493 51.2824 23.5712C52.4656 23.7561 53.6673 23.8485 54.8874 23.8485C56.6992 23.8485 58.2151 23.5897 59.4353 23.072C60.6554 22.5174 61.2655 21.7594 61.2655 20.7981C61.2655 19.8368 60.6554 19.0973 59.4353 18.5796C58.2151 18.025 56.6992 17.7477 54.8874 17.7477C53.6303 17.7477 52.558 17.8771 51.6707 18.1359C50.7833 18.3948 50.0438 18.7275 49.4522 19.1342C48.8976 19.504 48.4724 19.9107 48.1766 20.3544C47.8808 20.7981 47.6774 21.2233 47.5665 21.63C47.4925 21.9258 47.5295 22.2216 47.6774 22.5174C47.8623 22.7762 48.1211 22.9426 48.4539 23.0166ZM79.0241 26.067C79.0241 24.8838 79.0056 23.793 78.9686 22.7947C78.9317 21.7964 78.8762 20.8351 78.8022 19.9107C78.7653 18.9494 78.7098 18.0065 78.6359 17.0822C78.5989 16.1578 78.5619 15.178 78.5249 14.1427C78.488 13.4772 78.6728 12.941 79.0795 12.5343C79.4863 12.1276 80.0224 11.9612 80.6879 12.0352C81.1316 12.0721 81.5199 12.1091 81.8526 12.1461C82.2224 12.1831 82.6661 12.2015 83.1837 12.2015C84.4408 12.2015 85.5316 12.1461 86.456 12.0352C87.4173 11.9242 88.2862 11.7948 89.0626 11.6469C89.8761 11.499 90.6525 11.3696 91.392 11.2587C92.1315 11.1478 92.908 11.0923 93.7214 11.0923C95.9769 11.0923 98.0105 11.4621 99.8222 12.2015C101.671 12.9041 103.242 13.9209 104.536 15.2519C105.868 16.546 106.884 18.1175 107.587 19.9662C108.326 21.7779 108.696 23.8115 108.696 26.067C108.696 28.3224 108.326 30.3745 107.587 32.2232C106.884 34.0349 105.868 35.6064 104.536 36.9374C103.242 38.2315 101.671 39.2299 99.8222 39.9324C98.0105 40.6719 95.9769 41.0416 93.7214 41.0416C93.2777 41.0416 92.7601 41.0046 92.1685 40.9307C91.5769 40.8567 90.9668 40.7643 90.3383 40.6534C89.7467 40.5794 89.1551 40.487 88.5635 40.3761C87.9719 40.3021 87.4727 40.2282 87.066 40.1542C86.3265 40.0433 85.9938 40.3391 86.0677 41.0416C86.1786 42.3357 86.2341 44.7391 86.2341 48.2516C86.2341 48.5844 86.0862 48.8802 85.7904 49.139C85.5316 49.3978 85.1988 49.6012 84.7921 49.7491C84.4224 49.897 83.9972 50.0079 83.5165 50.0819C83.0728 50.1558 82.6846 50.1928 82.3518 50.1928C82.019 50.1928 81.6123 50.1558 81.1316 50.0819C80.6879 50.0079 80.2627 49.897 79.856 49.7491C79.4863 49.6012 79.1535 49.3978 78.8577 49.139C78.5989 48.8802 78.4695 48.5844 78.4695 48.2516C78.4695 46.8836 78.488 45.2012 78.5249 43.2046C78.5989 41.245 78.6728 39.2299 78.7468 37.1593C78.8207 35.0887 78.8762 33.0736 78.9132 31.114C78.9871 29.1173 79.0241 27.435 79.0241 26.067ZM93.7214 34.3862C96.2357 34.3862 98.1584 33.7761 99.4894 32.556C100.821 31.2988 101.486 29.1358 101.486 26.067C101.486 22.9981 100.821 20.8536 99.4894 19.6334C98.1584 18.3763 96.2357 17.7477 93.7214 17.7477C91.2072 17.7477 89.2845 18.3763 87.9534 19.6334C86.6223 20.8536 85.9568 22.9981 85.9568 26.067C85.9568 29.1358 86.6223 31.2988 87.9534 32.556C89.2845 33.7761 91.2072 34.3862 93.7214 34.3862ZM132.545 11.0923C134.43 11.0923 136.187 11.3511 137.813 11.8688C139.477 12.3494 140.919 13.015 142.139 13.8654C143.36 14.7158 144.321 15.7326 145.023 16.9158C145.763 18.099 146.133 19.3931 146.133 20.7981C146.133 22.5359 145.763 23.9964 145.023 25.1796C144.321 26.3258 143.36 27.2686 142.139 28.0081C140.919 28.7106 139.477 29.2098 137.813 29.5056C136.187 29.8014 134.43 29.9493 132.545 29.9493C131.177 29.9493 129.919 29.8568 128.773 29.672C127.664 29.4871 126.777 29.3022 126.111 29.1173C125.741 29.0434 125.464 29.0989 125.279 29.2837C125.131 29.4316 125.094 29.6535 125.168 29.9493C125.279 30.393 125.482 30.8736 125.778 31.3913C126.074 31.9089 126.499 32.3896 127.054 32.8333C127.609 33.277 128.33 33.6467 129.217 33.9425C130.104 34.2383 131.214 34.3862 132.545 34.3862C133.58 34.3862 134.467 34.3123 135.207 34.1644C135.983 33.9795 136.649 33.7576 137.203 33.4988C137.758 33.24 138.239 32.9442 138.645 32.6114C139.052 32.2787 139.422 31.9459 139.755 31.6131C140.272 31.0955 140.919 30.8367 141.696 30.8367C142.139 30.8367 142.565 30.9291 142.971 31.114C143.415 31.2988 143.803 31.5577 144.136 31.8904C144.469 32.1862 144.746 32.556 144.968 32.9997C145.19 33.4064 145.301 33.8686 145.301 34.3862C145.301 35.0887 145.023 35.8282 144.469 36.6047C143.914 37.3811 143.101 38.1021 142.029 38.7677C140.956 39.4332 139.625 39.9693 138.035 40.3761C136.445 40.8198 134.615 41.0416 132.545 41.0416C130.252 41.0416 128.182 40.6719 126.333 39.9324C124.484 39.2299 122.913 38.2131 121.619 36.882C120.325 35.5509 119.326 33.9795 118.624 32.1677C117.921 30.319 117.57 28.2854 117.57 26.067C117.57 23.8485 117.921 21.8334 118.624 20.0216C119.326 18.1729 120.325 16.583 121.619 15.2519C122.913 13.9209 124.484 12.9041 126.333 12.2015C128.182 11.4621 130.252 11.0923 132.545 11.0923ZM126.111 23.0166C126.814 23.1645 127.756 23.3493 128.94 23.5712C130.123 23.7561 131.324 23.8485 132.545 23.8485C134.356 23.8485 135.872 23.5897 137.092 23.072C138.313 22.5174 138.923 21.7594 138.923 20.7981C138.923 19.8368 138.313 19.0973 137.092 18.5796C135.872 18.025 134.356 17.7477 132.545 17.7477C131.287 17.7477 130.215 17.8771 129.328 18.1359C128.44 18.3948 127.701 18.7275 127.109 19.1342C126.555 19.504 126.13 19.9107 125.834 20.3544C125.538 20.7981 125.335 21.2233 125.224 21.63C125.15 21.9258 125.187 22.2216 125.335 22.5174C125.519 22.7762 125.778 22.9426 126.111 23.0166ZM156.127 38.5458C156.127 37.5105 156.145 36.5492 156.182 35.6618C156.219 34.7375 156.238 33.7946 156.238 32.8333C156.275 31.8719 156.312 30.8551 156.348 29.7829C156.385 28.6737 156.404 27.435 156.404 26.067C156.404 24.8838 156.385 23.793 156.348 22.7947C156.348 21.7964 156.33 20.8351 156.293 19.9107C156.256 18.9494 156.219 18.0065 156.182 17.0822C156.145 16.1578 156.127 15.178 156.127 14.1427C156.127 13.4772 156.33 12.9595 156.737 12.5898C157.18 12.1831 157.717 11.9982 158.345 12.0352C158.789 12.0721 159.177 12.1091 159.51 12.1461C159.88 12.1831 160.323 12.2015 160.841 12.2015C162.098 12.2015 163.189 12.1461 164.113 12.0352C165.074 11.9242 165.943 11.7948 166.72 11.6469C167.533 11.499 168.31 11.3696 169.049 11.2587C169.789 11.1478 170.565 11.0923 171.379 11.0923C173.597 11.0923 175.612 11.4621 177.424 12.2015C179.273 12.9041 180.863 13.9209 182.194 15.2519C183.525 16.583 184.541 18.1729 185.244 20.0216C185.983 21.8334 186.353 23.8485 186.353 26.067C186.353 27.435 186.372 28.6737 186.409 29.7829C186.446 30.8551 186.464 31.8719 186.464 32.8333C186.501 33.7946 186.538 34.7375 186.575 35.6618C186.612 36.5492 186.631 37.5105 186.631 38.5458C186.631 38.8786 186.483 39.1744 186.187 39.4332C185.891 39.692 185.521 39.8954 185.078 40.0433C184.634 40.1912 184.172 40.3021 183.691 40.3761C183.21 40.45 182.804 40.487 182.471 40.487C182.138 40.487 181.731 40.45 181.251 40.3761C180.77 40.3021 180.308 40.1912 179.864 40.0433C179.421 39.8954 179.051 39.692 178.755 39.4332C178.459 39.1744 178.311 38.8786 178.311 38.5458C178.311 37.5105 178.33 36.5492 178.367 35.6618C178.404 34.7375 178.422 33.7946 178.422 32.8333C178.459 31.8719 178.496 30.8551 178.533 29.7829C178.57 28.6737 178.589 27.435 178.589 26.067C178.589 22.9981 178.015 20.8536 176.869 19.6334C175.723 18.3763 173.893 17.7477 171.379 17.7477C168.864 17.7477 167.034 18.3763 165.888 19.6334C164.742 20.8536 164.169 22.9981 164.169 26.067C164.169 27.435 164.187 28.6737 164.224 29.7829C164.261 30.8551 164.279 31.8719 164.279 32.8333C164.316 33.7946 164.353 34.7375 164.39 35.6618C164.427 36.5492 164.446 37.5105 164.446 38.5458C164.446 38.8786 164.298 39.1744 164.002 39.4332C163.706 39.692 163.337 39.8954 162.893 40.0433C162.449 40.1912 161.987 40.3021 161.506 40.3761C161.026 40.45 160.619 40.487 160.286 40.487C159.953 40.487 159.547 40.45 159.066 40.3761C158.585 40.3021 158.123 40.1912 157.68 40.0433C157.236 39.8954 156.866 39.692 156.57 39.4332C156.275 39.1744 156.127 38.8786 156.127 38.5458ZM213.51 11.0923C214.36 11.0923 215.063 11.1478 215.617 11.2587C216.209 11.3696 216.782 11.499 217.337 11.6469C217.928 11.7948 218.557 11.9242 219.222 12.0352C219.925 12.1461 220.794 12.2015 221.829 12.2015C222.347 12.2015 222.772 12.1831 223.105 12.1461C223.475 12.1091 223.881 12.0721 224.325 12.0352C224.991 11.9612 225.527 12.1276 225.933 12.5343C226.34 12.941 226.525 13.4772 226.488 14.1427C226.451 15.178 226.396 16.1578 226.322 17.0822C226.285 18.0065 226.229 18.9494 226.155 19.9107C226.118 20.8351 226.081 21.7964 226.044 22.7947C226.007 23.793 225.989 24.8838 225.989 26.067C225.989 27.435 226.007 28.6737 226.044 29.7829C226.118 30.8551 226.192 31.8719 226.266 32.8333C226.34 33.7946 226.396 34.7375 226.433 35.6618C226.506 36.5492 226.543 37.5105 226.543 38.5458C226.543 38.8786 226.396 39.1744 226.1 39.4332C225.804 39.692 225.434 39.8954 224.991 40.0433C224.547 40.1912 224.085 40.3021 223.604 40.3761C223.123 40.45 222.717 40.487 222.384 40.487C222.051 40.487 221.644 40.45 221.164 40.3761C220.683 40.3021 220.221 40.1912 219.777 40.0433C219.333 39.8954 218.964 39.692 218.668 39.4332C218.372 39.1744 218.224 38.8786 218.224 38.5458C218.224 37.5105 218.243 36.5492 218.28 35.6618C218.317 34.7375 218.335 33.7946 218.335 32.8333C218.372 31.8719 218.409 30.8551 218.446 29.7829C218.483 28.6737 218.501 27.435 218.501 26.067C218.501 24.551 218.465 23.2754 218.391 22.2401C218.354 21.1678 218.169 20.2989 217.836 19.6334C217.54 18.9679 217.059 18.4872 216.394 18.1914C215.728 17.8956 214.767 17.7477 213.51 17.7477C212.031 17.7477 210.774 18.1359 209.739 18.9124C208.703 19.6889 207.853 20.6872 207.187 21.9073C206.522 23.1275 205.986 24.514 205.579 26.067C205.209 27.6199 204.932 29.1728 204.747 30.7257C204.562 32.2417 204.451 33.7022 204.414 35.1072C204.377 36.4753 204.359 37.6215 204.359 38.5458C204.359 38.8786 204.211 39.1744 203.915 39.4332C203.619 39.692 203.25 39.8954 202.806 40.0433C202.362 40.1912 201.9 40.3021 201.419 40.3761C200.939 40.45 200.532 40.487 200.199 40.487C199.866 40.487 199.46 40.45 198.979 40.3761C198.498 40.3021 198.036 40.1912 197.592 40.0433C197.149 39.8954 196.779 39.692 196.483 39.4332C196.187 39.1744 196.04 38.8786 196.04 38.5458C196.04 36.919 196.132 35.1257 196.317 33.1661C196.502 31.1694 196.834 29.1543 197.315 27.1207C197.796 25.0871 198.443 23.109 199.256 21.1863C200.107 19.2637 201.179 17.5628 202.473 16.0839C203.767 14.5679 205.32 13.3662 207.132 12.4789C208.944 11.5545 211.07 11.0923 213.51 11.0923ZM251.495 11.0923C253.38 11.0923 255.137 11.3511 256.764 11.8688C258.427 12.3494 259.869 13.015 261.09 13.8654C262.31 14.7158 263.271 15.7326 263.974 16.9158C264.713 18.099 265.083 19.3931 265.083 20.7981C265.083 22.5359 264.713 23.9964 263.974 25.1796C263.271 26.3258 262.31 27.2686 261.09 28.0081C259.869 28.7106 258.427 29.2098 256.764 29.5056C255.137 29.8014 253.38 29.9493 251.495 29.9493C250.127 29.9493 248.869 29.8568 247.723 29.672C246.614 29.4871 245.727 29.3022 245.061 29.1173C244.691 29.0434 244.414 29.0989 244.229 29.2837C244.081 29.4316 244.044 29.6535 244.118 29.9493C244.229 30.393 244.433 30.8736 244.728 31.3913C245.024 31.9089 245.449 32.3896 246.004 32.8333C246.559 33.277 247.28 33.6467 248.167 33.9425C249.054 34.2383 250.164 34.3862 251.495 34.3862C252.53 34.3862 253.417 34.3123 254.157 34.1644C254.933 33.9795 255.599 33.7576 256.153 33.4988C256.708 33.24 257.189 32.9442 257.595 32.6114C258.002 32.2787 258.372 31.9459 258.705 31.6131C259.222 31.0955 259.869 30.8367 260.646 30.8367C261.09 30.8367 261.515 30.9291 261.921 31.114C262.365 31.2988 262.753 31.5577 263.086 31.8904C263.419 32.1862 263.696 32.556 263.918 32.9997C264.14 33.4064 264.251 33.8686 264.251 34.3862C264.251 35.0887 263.974 35.8282 263.419 36.6047C262.864 37.3811 262.051 38.1021 260.979 38.7677C259.906 39.4332 258.575 39.9693 256.985 40.3761C255.395 40.8198 253.565 41.0416 251.495 41.0416C249.202 41.0416 247.132 40.6719 245.283 39.9324C243.434 39.2299 241.863 38.2131 240.569 36.882C239.275 35.5509 238.276 33.9795 237.574 32.1677C236.871 30.319 236.52 28.2854 236.52 26.067C236.52 23.8485 236.871 21.8334 237.574 20.0216C238.276 18.1729 239.275 16.583 240.569 15.2519C241.863 13.9209 243.434 12.9041 245.283 12.2015C247.132 11.4621 249.202 11.0923 251.495 11.0923ZM245.061 23.0166C245.764 23.1645 246.706 23.3493 247.89 23.5712C249.073 23.7561 250.275 23.8485 251.495 23.8485C253.306 23.8485 254.822 23.5897 256.043 23.072C257.263 22.5174 257.873 21.7594 257.873 20.7981C257.873 19.8368 257.263 19.0973 256.043 18.5796C254.822 18.025 253.306 17.7477 251.495 17.7477C250.238 17.7477 249.165 17.8771 248.278 18.1359C247.391 18.3948 246.651 18.7275 246.059 19.1342C245.505 19.504 245.08 19.9107 244.784 20.3544C244.488 20.7981 244.285 21.2233 244.174 21.63C244.1 21.9258 244.137 22.2216 244.285 22.5174C244.47 22.7762 244.728 22.9426 245.061 23.0166ZM256.486 -2.26439e-05C257.743 -2.26439e-05 258.705 0.369721 259.37 1.10921C260.036 1.8487 260.369 2.77306 260.369 3.88229C260.369 4.99153 260.036 5.91589 259.37 6.65538C258.705 7.39486 257.743 7.76461 256.486 7.76461C255.229 7.76461 254.268 7.39486 253.602 6.65538C252.937 5.91589 252.604 4.99153 252.604 3.88229C252.604 2.77306 252.937 1.8487 253.602 1.10921C254.268 0.369721 255.229 -2.26439e-05 256.486 -2.26439e-05ZM245.394 -2.26439e-05C246.651 -2.26439e-05 247.612 0.369721 248.278 1.10921C248.943 1.8487 249.276 2.77306 249.276 3.88229C249.276 4.99153 248.943 5.91589 248.278 6.65538C247.612 7.39486 246.651 7.76461 245.394 7.76461C244.137 7.76461 243.175 7.39486 242.51 6.65538C241.844 5.91589 241.512 4.99153 241.512 3.88229C241.512 2.77306 241.844 1.8487 242.51 1.10921C243.175 0.369721 244.137 -2.26439e-05 245.394 -2.26439e-05ZM275.077 14.1427C275.077 13.4772 275.28 12.9595 275.687 12.5898C276.13 12.1831 276.667 11.9982 277.295 12.0352C277.739 12.0721 278.127 12.1091 278.46 12.1461C278.83 12.1831 279.273 12.2015 279.791 12.2015C281.048 12.2015 282.065 12.1461 282.841 12.0352C283.655 11.9242 284.376 11.7948 285.004 11.6469C285.633 11.499 286.243 11.3696 286.835 11.2587C287.426 11.1478 288.129 11.0923 288.942 11.0923C290.199 11.0923 291.308 11.2217 292.27 11.4805C293.231 11.7394 294.063 12.0536 294.766 12.4234C295.505 12.7931 296.134 13.1814 296.651 13.5881C297.169 13.9948 297.594 14.3461 297.927 14.6419C298.482 15.1225 298.962 15.1225 299.369 14.6419C299.665 14.3091 300.053 13.9393 300.534 13.5326C301.051 13.1259 301.68 12.7377 302.419 12.3679C303.159 11.9982 304.009 11.7024 304.971 11.4805C305.969 11.2217 307.097 11.0923 308.354 11.0923C310.572 11.0923 312.532 11.4621 314.233 12.2015C315.933 12.9041 317.338 13.9209 318.448 15.2519C319.594 16.583 320.463 18.1729 321.054 20.0216C321.646 21.8334 321.942 23.8485 321.942 26.067C321.942 27.435 321.96 28.6737 321.997 29.7829C322.034 30.8551 322.053 31.8719 322.053 32.8333C322.09 33.7946 322.127 34.7375 322.164 35.6618C322.201 36.5492 322.219 37.5105 322.219 38.5458C322.219 38.8786 322.071 39.1744 321.775 39.4332C321.48 39.692 321.11 39.8954 320.666 40.0433C320.222 40.1912 319.76 40.3021 319.28 40.3761C318.799 40.45 318.392 40.487 318.059 40.487C317.727 40.487 317.32 40.45 316.839 40.3761C316.359 40.3021 315.896 40.1912 315.453 40.0433C315.009 39.8954 314.639 39.692 314.344 39.4332C314.048 39.1744 313.9 38.8786 313.9 38.5458C313.9 37.5105 313.918 36.5492 313.955 35.6618C313.992 34.7375 314.011 33.7946 314.011 32.8333C314.048 31.8719 314.085 30.8551 314.122 29.7829C314.159 28.6737 314.177 27.435 314.177 26.067C314.177 24.551 314.103 23.2754 313.955 22.2401C313.844 21.1678 313.567 20.2989 313.123 19.6334C312.717 18.9679 312.125 18.4872 311.349 18.1914C310.609 17.8956 309.611 17.7477 308.354 17.7477C307.097 17.7477 306.08 17.8956 305.303 18.1914C304.564 18.4872 303.991 18.9679 303.584 19.6334C303.177 20.2989 302.9 21.1678 302.752 22.2401C302.604 23.2754 302.53 24.551 302.53 26.067C302.53 27.435 302.549 28.6737 302.586 29.7829C302.623 30.8551 302.641 31.8719 302.641 32.8333C302.678 33.7946 302.715 34.7375 302.752 35.6618C302.789 36.5492 302.808 37.5105 302.808 38.5458C302.808 38.8786 302.66 39.1744 302.364 39.4332C302.068 39.692 301.698 39.8954 301.255 40.0433C300.811 40.1912 300.349 40.3021 299.868 40.3761C299.387 40.45 298.981 40.487 298.648 40.487C298.315 40.487 297.908 40.45 297.428 40.3761C296.947 40.3021 296.485 40.1912 296.041 40.0433C295.598 39.8954 295.228 39.692 294.932 39.4332C294.636 39.1744 294.488 38.8786 294.488 38.5458C294.488 37.5105 294.507 36.5492 294.544 35.6618C294.581 34.7375 294.599 33.7946 294.599 32.8333C294.636 31.8719 294.673 30.8551 294.71 29.7829C294.747 28.6737 294.766 27.435 294.766 26.067C294.766 24.551 294.692 23.2754 294.544 22.2401C294.433 21.1678 294.156 20.2989 293.712 19.6334C293.305 18.9679 292.714 18.4872 291.937 18.1914C291.198 17.8956 290.199 17.7477 288.942 17.7477C287.685 17.7477 286.668 17.8956 285.892 18.1914C285.152 18.4872 284.579 18.9679 284.172 19.6334C283.766 20.2989 283.488 21.1678 283.34 22.2401C283.193 23.2754 283.119 24.551 283.119 26.067C283.119 27.435 283.137 28.6737 283.174 29.7829C283.211 30.8551 283.23 31.8719 283.23 32.8333C283.267 33.7946 283.304 34.7375 283.34 35.6618C283.377 36.5492 283.396 37.5105 283.396 38.5458C283.396 38.8786 283.248 39.1744 282.952 39.4332C282.656 39.692 282.287 39.8954 281.843 40.0433C281.399 40.1912 280.937 40.3021 280.456 40.3761C279.976 40.45 279.569 40.487 279.236 40.487C278.904 40.487 278.497 40.45 278.016 40.3761C277.536 40.3021 277.073 40.1912 276.63 40.0433C276.186 39.8954 275.816 39.692 275.52 39.4332C275.225 39.1744 275.077 38.8786 275.077 38.5458C275.077 37.5105 275.095 36.5492 275.132 35.6618C275.169 34.7375 275.188 33.7946 275.188 32.8333C275.225 31.8719 275.262 30.8551 275.299 29.7829C275.336 28.6737 275.354 27.435 275.354 26.067C275.354 24.8838 275.336 23.793 275.299 22.7947C275.299 21.7964 275.28 20.8351 275.243 19.9107C275.206 18.9494 275.169 18.0065 275.132 17.0822C275.095 16.1578 275.077 15.178 275.077 14.1427ZM331.671 26.067C331.671 23.8485 332.023 21.8334 332.725 20.0216C333.465 18.1729 334.5 16.583 335.831 15.2519C337.162 13.9209 338.734 12.9041 340.545 12.2015C342.394 11.4621 344.428 11.0923 346.646 11.0923C347.497 11.0923 348.273 11.1478 348.975 11.2587C349.715 11.3696 350.473 11.499 351.249 11.6469C352.063 11.7948 352.932 11.9242 353.856 12.0352C354.817 12.1461 355.927 12.2015 357.184 12.2015C357.701 12.2015 358.127 12.1831 358.459 12.1461C358.829 12.1091 359.236 12.0721 359.68 12.0352C360.345 11.9612 360.881 12.1276 361.288 12.5343C361.695 12.941 361.88 13.4772 361.843 14.1427C361.806 15.178 361.75 16.1578 361.676 17.0822C361.639 18.0065 361.584 18.9494 361.51 19.9107C361.473 20.8351 361.436 21.7964 361.399 22.7947C361.362 23.793 361.343 24.8838 361.343 26.067C361.343 27.2501 361.362 28.3409 361.399 29.3392C361.436 30.3375 361.473 31.3173 361.51 32.2787C361.584 33.203 361.639 34.1274 361.676 35.0517C361.75 35.9761 361.806 36.9559 361.843 37.9912C361.88 38.6568 361.695 39.1929 361.288 39.5996C360.881 40.0063 360.345 40.1727 359.68 40.0988C359.236 40.0618 358.829 40.0248 358.459 39.9878C358.127 39.9509 357.701 39.9324 357.184 39.9324C355.816 39.9324 354.651 39.9878 353.69 40.0988C352.728 40.2097 351.859 40.3391 351.083 40.487C350.307 40.6349 349.586 40.7643 348.92 40.8752C348.254 40.9861 347.497 41.0416 346.646 41.0416C344.428 41.0416 342.394 40.6719 340.545 39.9324C338.734 39.2299 337.162 38.2131 335.831 36.882C334.5 35.5509 333.465 33.9795 332.725 32.1677C332.023 30.319 331.671 28.2854 331.671 26.067ZM346.646 34.3862C349.16 34.3862 351.083 33.7761 352.414 32.556C353.745 31.2988 354.411 29.1358 354.411 26.067C354.411 22.9981 353.745 20.8536 352.414 19.6334C351.083 18.3763 349.16 17.7477 346.646 17.7477C344.132 17.7477 342.209 18.3763 340.878 19.6334C339.547 20.8536 338.881 22.9981 338.881 26.067C338.881 29.1358 339.547 31.2988 340.878 32.556C342.209 33.7761 344.132 34.3862 346.646 34.3862Z" fill="#8F121E"/>
</svg>
