<svg width="24" height="24" viewBox="0 0 24 24" fill="none" xmlns="http://www.w3.org/2000/svg">
<g clip-path="url(#clip0_87_1069)">
<path d="M19.5 15C19.7478 14.9998 19.9887 15.0815 20.1854 15.2323C20.382 15.3831 20.5234 15.5946 20.5875 15.834C20.7442 16.457 21.0669 17.0259 21.5212 17.4802C21.9755 17.9345 22.5444 18.2572 23.1675 18.414C23.4067 18.478 23.6182 18.6193 23.769 18.8158C23.9198 19.0123 24.0016 19.253 24.0016 19.5007C24.0016 19.7485 23.9198 19.9892 23.769 20.1857C23.6182 20.3822 23.4067 20.5235 23.1675 20.5875C22.5444 20.7443 21.9755 21.067 21.5212 21.5213C21.0669 21.9755 20.7442 22.5445 20.5875 23.1675C20.5239 23.4074 20.3828 23.6196 20.1861 23.771C19.9894 23.9224 19.7482 24.0045 19.5 24.0045C19.2518 24.0045 19.0105 23.9224 18.8138 23.771C18.6171 23.6196 18.476 23.4074 18.4125 23.1675C18.2557 22.5445 17.933 21.9755 17.4787 21.5213C17.0244 21.067 16.4555 20.7443 15.8325 20.5875C15.5925 20.524 15.3803 20.3828 15.229 20.1861C15.0776 19.9894 14.9955 19.7482 14.9955 19.5C14.9955 19.2518 15.0776 19.0106 15.229 18.8139C15.3803 18.6172 15.5925 18.476 15.8325 18.4125C16.4555 18.2557 17.0244 17.933 17.4787 17.4787C17.933 17.0245 18.2557 16.4555 18.4125 15.8325L18.477 15.657C18.5666 15.461 18.7107 15.2949 18.8921 15.1784C19.0734 15.0619 19.2844 15 19.5 15ZM10.5 1.13431e-07C11.0326 -0.000168935 11.548 0.188619 11.9545 0.532777C12.361 0.876935 12.6323 1.35414 12.72 1.8795C13.083 4.062 13.764 5.4255 14.67 6.3315C15.5745 7.236 16.938 7.917 19.1205 8.2815C19.6447 8.37016 20.1206 8.6416 20.4638 9.0477C20.807 9.4538 20.9953 9.96831 20.9953 10.5C20.9953 11.0317 20.807 11.5462 20.4638 11.9523C20.1206 12.3584 19.6447 12.6298 19.1205 12.7185C16.938 13.083 15.5745 13.764 14.6685 14.6685C13.764 15.5745 13.083 16.938 12.7185 19.1205C12.6298 19.6447 12.3584 20.1207 11.9523 20.4638C11.5462 20.807 11.0317 20.9953 10.5 20.9953C9.96827 20.9953 9.45376 20.807 9.04766 20.4638C8.64156 20.1207 8.37012 19.6447 8.28146 19.1205C7.91696 16.938 7.23596 15.5745 6.33146 14.6685C5.42546 13.764 4.06196 13.083 1.87946 12.7185C1.35522 12.6298 0.879303 12.3584 0.536115 11.9523C0.192927 11.5462 0.00463867 11.0317 0.00463867 10.5C0.00463867 9.96831 0.192927 9.4538 0.536115 9.0477C0.879303 8.6416 1.35522 8.37016 1.87946 8.2815C4.06196 7.917 5.42546 7.236 6.33146 6.3315C7.23596 5.4255 7.91696 4.062 8.28146 1.8795L8.32346 1.68C8.44949 1.19876 8.73145 0.772849 9.12525 0.46888C9.51905 0.164912 10.0025 2.28552e-05 10.5 1.13431e-07ZM10.5 2.25C9.67496 7.2 7.19996 9.675 2.24996 10.5C7.19996 11.325 9.67496 13.8 10.5 18.75C11.325 13.8 13.8 11.325 18.75 10.5C13.8 9.675 11.325 7.2 10.5 2.25Z" fill="#FCFBF9"/>
</g>
<defs>
<clipPath id="clip0_87_1069">
<rect width="24" height="24" fill="white"/>
</clipPath>
</defs>
</svg>
