<svg width="24" height="24" viewBox="0 0 24 24" fill="none" xmlns="http://www.w3.org/2000/svg">
<path fill-rule="evenodd" clip-rule="evenodd" d="M13.791 7.5L14.3175 8.8095L15.7275 8.9055L20.523 9.231L16.833 12.3135L15.75 13.218L16.095 14.589L17.268 19.251L13.197 16.695L12 15.9435L10.803 16.6935L6.73204 19.251L7.90504 14.589L8.25004 13.218L7.16554 12.3135L3.47554 9.231L8.27254 8.9055L9.68254 8.8095L10.2075 7.4985L12 3.0375L13.791 7.5ZM2.20655 7.062L8.12105 6.66L10.329 1.1595C10.935 -0.346501 13.065 -0.346501 13.671 1.1595L15.879 6.66L21.7935 7.062C23.4135 7.1715 24.0705 9.198 22.8255 10.239L18.2775 14.04L19.7235 19.788C20.1195 21.363 18.3945 22.614 17.0205 21.753L12 18.6L6.97954 21.7515C5.60554 22.614 3.88055 21.3615 4.27655 19.788L5.72255 14.04L1.17455 10.239C-0.0704548 9.198 0.588045 7.1715 2.20655 7.062Z" fill="#F9CC77"/>
</svg>
