<svg width="48" height="48" viewBox="0 0 48 48" fill="none" xmlns="http://www.w3.org/2000/svg">
<path d="M30.146 4H17.876C6.664 4 4 6.666 4 17.854V30.126C4 41.334 6.646 44 17.854 44H30.126C41.334 44 44 41.354 44 30.146V17.876C44 6.664 41.354 4 30.146 4ZM36.292 32.54H33.374C32.27 32.54 31.938 31.646 29.958 29.666C28.23 28 27.5 27.792 27.062 27.792C26.458 27.792 26.292 27.958 26.292 28.792V31.416C26.292 32.126 26.062 32.542 24.208 32.542C22.409 32.4198 20.6647 31.8726 19.1182 30.9454C17.5718 30.0181 16.2673 28.7373 15.312 27.208C13.0447 24.389 11.4681 21.0789 10.708 17.542C10.708 17.104 10.874 16.708 11.708 16.708H14.626C15.376 16.708 15.646 17.042 15.938 17.812C17.354 21.98 19.77 25.604 20.75 25.604C21.126 25.604 21.29 25.438 21.29 24.5V20.208C21.166 18.25 20.126 18.084 20.126 17.376C20.1394 17.1893 20.2249 17.0151 20.3646 16.8904C20.5042 16.7657 20.6869 16.7002 20.874 16.708H25.458C26.084 16.708 26.292 17.02 26.292 17.77V23.562C26.292 24.188 26.562 24.396 26.75 24.396C27.126 24.396 27.416 24.188 28.104 23.5C29.5817 21.6979 30.789 19.6901 31.688 17.54C31.7805 17.2821 31.9544 17.0614 32.1836 16.9112C32.4128 16.7611 32.6846 16.6898 32.958 16.708H35.876C36.75 16.708 36.936 17.146 36.75 17.77C35.689 20.1469 34.3762 22.4031 32.834 24.5C32.52 24.98 32.394 25.23 32.834 25.792C33.124 26.23 34.146 27.084 34.834 27.896C35.8334 28.8936 36.6636 30.0474 37.292 31.312C37.542 32.124 37.124 32.54 36.292 32.54Z" fill="#302F2B"/>
</svg>
