<svg width="24" height="24" viewBox="0 0 24 24" fill="none" xmlns="http://www.w3.org/2000/svg">
<path fill-rule="evenodd" clip-rule="evenodd" d="M5.20499 5.20523C5.41592 4.99455 5.70186 4.87622 5.99999 4.87622C6.29811 4.87622 6.58405 4.99455 6.79499 5.20523L12 10.4102L17.205 5.20523C17.308 5.0947 17.4322 5.00605 17.5702 4.94456C17.7082 4.88307 17.8571 4.85001 18.0082 4.84734C18.1593 4.84468 18.3093 4.87246 18.4494 4.92905C18.5895 4.98563 18.7167 5.06984 18.8235 5.17667C18.9304 5.2835 19.0146 5.41075 19.0712 5.55083C19.1278 5.69092 19.1555 5.84096 19.1529 5.99201C19.1502 6.14307 19.1171 6.29204 19.0557 6.43004C18.9942 6.56804 18.9055 6.69224 18.795 6.79523L13.59 12.0002L18.795 17.2052C18.9055 17.3082 18.9942 17.4324 19.0557 17.5704C19.1171 17.7084 19.1502 17.8574 19.1529 18.0084C19.1555 18.1595 19.1278 18.3095 19.0712 18.4496C19.0146 18.5897 18.9304 18.717 18.8235 18.8238C18.7167 18.9306 18.5895 19.0148 18.4494 19.0714C18.3093 19.128 18.1593 19.1558 18.0082 19.1531C17.8571 19.1505 17.7082 19.1174 17.5702 19.0559C17.4322 18.9944 17.308 18.9058 17.205 18.7952L12 13.5902L6.79499 18.7952C6.58172 18.9939 6.29965 19.1021 6.0082 19.097C5.71675 19.0919 5.43867 18.9738 5.23255 18.7677C5.02643 18.5615 4.90837 18.2835 4.90322 17.992C4.89808 17.7006 5.00627 17.4185 5.20499 17.2052L10.41 12.0002L5.20499 6.79523C4.99431 6.58429 4.87598 6.29836 4.87598 6.00023C4.87598 5.7021 4.99431 5.41617 5.20499 5.20523Z" fill="#302F2B"/>
</svg>
